<svg id="Layer_1" data-name="Layer 1" xmlns="http://www.w3.org/2000/svg" width="366" height="360" viewBox="0 0 366 360"><title>check-temperature</title><path d="M1017,462h-6v18a73.88,73.88,0,0,1-2.34,18H1017a18,18,0,0,0,0-36Zm0,0" transform="translate(-777 -360)" style="fill:#fbe1ca"/><path d="M867,480V462h-6a18,18,0,0,0,0,36h8.34A73.88,73.88,0,0,1,867,480Zm0,0" transform="translate(-777 -360)" style="fill:#fbe1ca"/><path d="M939,552a71.92,71.92,0,0,1-36-9.72V564l36,36,36-36V542.28A71.94,71.94,0,0,1,939,552Zm0,0" transform="translate(-777 -360)" style="fill:#fbe1ca"/><rect x="114" y="48" width="96" height="48" style="fill:#e75a5a"/><path d="M987,447.12V456H891v-8.88A100.57,100.57,0,0,1,867,450v30a72,72,0,0,0,144,0V450a100.51,100.51,0,0,1-24-2.88Zm0,0" transform="translate(-777 -360)" style="fill:#fbe1ca"/><path d="M939,360a84,84,0,0,0-84,84v19.08a18.07,18.07,0,0,1,6-1.08h6V450a100.57,100.57,0,0,0,24-2.88V408h96v39.12a100.51,100.51,0,0,0,24,2.88v12h6a18.07,18.07,0,0,1,6,1.08V444a84,84,0,0,0-84-84Zm0,0" transform="translate(-777 -360)" style="fill:#9da1bf"/><path d="M1050.3,600a101.65,101.65,0,0,0-52-30.48L975,564l-36,36Zm0,0" transform="translate(-777 -360)" style="fill:#e75a5a"/><path d="M903,564l-23.34,5.52a101.65,101.65,0,0,0-52,30.48H939Zm0,0" transform="translate(-777 -360)" style="fill:#e75a5a"/><path d="M807,600h264a30,30,0,0,1,30,30v90H777V630a30,30,0,0,1,30-30Zm0,0" transform="translate(-777 -360)" style="fill:#dc2626"/><path d="M1113,530.52V408a12,12,0,0,0-24,0V530.52a30,30,0,1,0,24,0Zm0,0" transform="translate(-777 -360)" style="fill:#e1656e"/><path d="M1113,558a12,12,0,1,1-12-12,12,12,0,0,1,12,12Zm0,0" transform="translate(-777 -360)" style="fill:#f29b99"/><rect x="312" y="66" width="24" height="12" style="fill:#f29b99"/><path d="M1114.75,379.77l12-12,8.48,8.48-12,12Zm0,0" transform="translate(-777 -360)" style="fill:#c8cded"/><rect x="348" y="36" width="18" height="12" style="fill:#c8cded"/><path d="M1066.71,376.27l8.48-8.49,12,12-8.49,8.48Zm0,0" transform="translate(-777 -360)" style="fill:#c8cded"/><rect x="282" y="36" width="18" height="12" style="fill:#c8cded"/></svg>