<svg xmlns="http://www.w3.org/2000/svg" xmlns:xlink="http://www.w3.org/1999/xlink" width="415.99" height="426.99" viewBox="0 0 415.99 426.99"><defs><linearGradient id="Degradado_sin_nombre_10" x1="285.26" y1="192.7" x2="279.51" y2="180.29" gradientUnits="userSpaceOnUse"><stop offset="0" stop-color="#ffccc4"/><stop offset="1" stop-color="#ffae90"/></linearGradient><linearGradient id="Degradado_sin_nombre_21" x1="283.82" y1="176.16" x2="275.95" y2="182.58" gradientUnits="userSpaceOnUse"><stop offset="0" stop-color="#ffbeb8" stop-opacity="0"/><stop offset="1" stop-color="#ff9f84"/></linearGradient><linearGradient id="Degradado_sin_nombre_10-2" x1="1466.17" y1="192.7" x2="1460.42" y2="180.29" gradientTransform="matrix(-1, 0, 0, 1, 1657.85, 0)" xlink:href="#Degradado_sin_nombre_10"/><linearGradient id="Degradado_sin_nombre_21-2" x1="1464.73" y1="176.16" x2="1456.86" y2="182.58" gradientTransform="matrix(-1, 0, 0, 1, 1657.85, 0)" xlink:href="#Degradado_sin_nombre_21"/><linearGradient id="Degradado_sin_nombre_10-3" x1="239.79" y1="83.14" x2="239.51" y2="142.07" xlink:href="#Degradado_sin_nombre_10"/><linearGradient id="Degradado_sin_nombre_3" x1="239.18" y1="38.83" x2="238.9" y2="97.77" gradientUnits="userSpaceOnUse"><stop offset="0" stop-color="#ffbeb8"/><stop offset="1" stop-color="#ff9f84"/></linearGradient><linearGradient id="Degradado_sin_nombre_2" x1="290.04" y1="192.87" x2="270.34" y2="135.28" gradientUnits="userSpaceOnUse"><stop offset="0" stop-color="#ffccc4"/><stop offset="0.16" stop-color="#ffbfae"/><stop offset="0.35" stop-color="#ffb69d"/><stop offset="0.55" stop-color="#ffb093"/><stop offset="0.8" stop-color="#ffae90"/></linearGradient><linearGradient id="Degradado_sin_nombre_24" x1="280.72" y1="176.83" x2="266.74" y2="118.68" xlink:href="#Degradado_sin_nombre_3"/><linearGradient id="Degradado_sin_nombre_2-2" x1="1470.95" y1="192.87" x2="1451.25" y2="135.28" gradientTransform="matrix(-1, 0, 0, 1, 1657.85, 0)" xlink:href="#Degradado_sin_nombre_2"/><linearGradient id="Degradado_sin_nombre_24-2" x1="1461.62" y1="176.83" x2="1447.64" y2="118.68" gradientTransform="matrix(-1, 0, 0, 1, 1657.85, 0)" xlink:href="#Degradado_sin_nombre_3"/><linearGradient id="Degradado_sin_nombre_10-4" x1="256.66" y1="109.54" x2="271.57" y2="109.54" xlink:href="#Degradado_sin_nombre_10"/><linearGradient id="Degradado_sin_nombre_10-5" x1="259.93" y1="112.58" x2="274.48" y2="112.58" xlink:href="#Degradado_sin_nombre_10"/><linearGradient id="Degradado_sin_nombre_10-6" x1="263" y1="116.72" x2="276.37" y2="116.72" xlink:href="#Degradado_sin_nombre_10"/><linearGradient id="Degradado_sin_nombre_10-7" x1="267.79" y1="118.93" x2="277.4" y2="118.93" xlink:href="#Degradado_sin_nombre_10"/><linearGradient id="Degradado_sin_nombre_10-8" x1="1437.56" y1="109.54" x2="1452.48" y2="109.54" gradientTransform="matrix(-1, 0, 0, 1, 1657.85, 0)" xlink:href="#Degradado_sin_nombre_10"/><linearGradient id="Degradado_sin_nombre_10-9" x1="1440.84" y1="112.58" x2="1455.39" y2="112.58" gradientTransform="matrix(-1, 0, 0, 1, 1657.85, 0)" xlink:href="#Degradado_sin_nombre_10"/><linearGradient id="Degradado_sin_nombre_10-10" x1="1443.91" y1="116.72" x2="1457.27" y2="116.72" gradientTransform="matrix(-1, 0, 0, 1, 1657.85, 0)" xlink:href="#Degradado_sin_nombre_10"/><linearGradient id="Degradado_sin_nombre_10-11" x1="1448.69" y1="118.93" x2="1458.3" y2="118.93" gradientTransform="matrix(-1, 0, 0, 1, 1657.85, 0)" xlink:href="#Degradado_sin_nombre_10"/><linearGradient id="Degradado_sin_nombre_10-12" x1="2796.3" y1="182.56" x2="2836.11" y2="328.23" gradientTransform="matrix(-1, 0, 0, 1, 3109.84, 0)" xlink:href="#Degradado_sin_nombre_10"/><linearGradient id="Degradado_sin_nombre_10-13" x1="2810.56" y1="196.84" x2="2826.26" y2="334.53" gradientTransform="matrix(-1, 0, 0, 1, 3109.84, 0)" xlink:href="#Degradado_sin_nombre_10"/><linearGradient id="Degradado_sin_nombre_3-2" x1="2765.5" y1="219.8" x2="2790.89" y2="221.4" gradientTransform="matrix(-1, 0, 0, 1, 3109.84, 0)" xlink:href="#Degradado_sin_nombre_3"/><linearGradient id="Degradado_sin_nombre_10-14" x1="2805.07" y1="196.96" x2="2820.77" y2="334.66" gradientTransform="matrix(-1, 0, 0, 1, 3109.84, 0)" xlink:href="#Degradado_sin_nombre_10"/><linearGradient id="Degradado_sin_nombre_10-15" x1="2784.33" y1="199.8" x2="2800.03" y2="337.49" gradientTransform="matrix(-1, 0, 0, 1, 3109.84, 0)" xlink:href="#Degradado_sin_nombre_10"/><linearGradient id="Degradado_sin_nombre_10-16" x1="2832.03" y1="192.69" x2="2848.2" y2="334.58" gradientTransform="matrix(-1, 0, 0, 1, 3109.84, 0)" xlink:href="#Degradado_sin_nombre_10"/><linearGradient id="Degradado_sin_nombre_2-3" x1="-1052.1" y1="313.84" x2="-1077.6" y2="239.29" gradientTransform="translate(1402.7 -109.28) rotate(-5.5)" xlink:href="#Degradado_sin_nombre_2"/><linearGradient id="Degradado_sin_nombre_24-3" x1="-1064.56" y1="293.15" x2="-1082.63" y2="217.98" gradientTransform="translate(1402.7 -109.28) rotate(-5.5)" xlink:href="#Degradado_sin_nombre_3"/><linearGradient id="Degradado_sin_nombre_10-17" x1="-1096.07" y1="206.13" x2="-1076.22" y2="206.13" gradientTransform="translate(1402.7 -109.28) rotate(-5.5)" xlink:href="#Degradado_sin_nombre_10"/><linearGradient id="Degradado_sin_nombre_10-18" x1="-1091.71" y1="210.06" x2="-1072.35" y2="210.06" gradientTransform="translate(1402.7 -109.28) rotate(-5.5)" xlink:href="#Degradado_sin_nombre_10"/><linearGradient id="Degradado_sin_nombre_10-19" x1="-1087.62" y1="215.4" x2="-1069.84" y2="215.4" gradientTransform="translate(1402.7 -109.28) rotate(-5.5)" xlink:href="#Degradado_sin_nombre_10"/><linearGradient id="Degradado_sin_nombre_10-20" x1="-1081.26" y1="218.25" x2="-1068.46" y2="218.25" gradientTransform="translate(1402.7 -109.28) rotate(-5.5)" xlink:href="#Degradado_sin_nombre_10"/><linearGradient id="Degradado_sin_nombre_33" x1="2833.7" y1="169.5" x2="2791.88" y2="233.05" gradientTransform="matrix(-1, 0, 0, 1, 3109.84, 0)" gradientUnits="userSpaceOnUse"><stop offset="0" stop-color="#fff"/><stop offset="1" stop-color="#fff" stop-opacity="0"/></linearGradient><linearGradient id="Degradado_sin_nombre_33-2" x1="2838.07" y1="172.37" x2="2796.25" y2="235.92" xlink:href="#Degradado_sin_nombre_33"/><linearGradient id="Degradado_sin_nombre_438" x1="1689.91" y1="179.56" x2="1664.17" y2="104.34" gradientTransform="matrix(-0.99, 0.12, 0.12, 0.99, 1783.93, -38.53)" gradientUnits="userSpaceOnUse"><stop offset="0" stop-color="#cf9a96"/><stop offset="0.07" stop-color="#c78f88"/><stop offset="0.23" stop-color="#b87b71"/><stop offset="0.39" stop-color="#ae6e60"/><stop offset="0.57" stop-color="#a86656"/><stop offset="0.8" stop-color="#a66353"/></linearGradient><linearGradient id="Degradado_sin_nombre_437" x1="1681.5" y1="157.39" x2="1663.26" y2="81.52" gradientTransform="matrix(-0.99, 0.12, 0.12, 0.99, 1783.93, -38.53)" gradientUnits="userSpaceOnUse"><stop offset="0" stop-color="#e6c1c1"/><stop offset="1" stop-color="#a45b50"/></linearGradient><linearGradient id="Degradado_sin_nombre_907" x1="1613.54" y1="284.63" x2="1585.24" y2="201.9" gradientTransform="matrix(-1, 0.08, 0.08, 1, 1699.37, -66.4)" gradientUnits="userSpaceOnUse"><stop offset="0" stop-color="#e3c6ff"/><stop offset="0.17" stop-color="#d7afff"/><stop offset="0.35" stop-color="#cf9eff"/><stop offset="0.55" stop-color="#ca94ff"/><stop offset="0.8" stop-color="#c891ff"/></linearGradient><linearGradient id="Degradado_sin_nombre_906" x1="1597.56" y1="262.41" x2="1577.5" y2="179" gradientTransform="matrix(-1, 0.08, 0.08, 1, 1699.37, -66.4)" gradientUnits="userSpaceOnUse"><stop offset="0" stop-color="#e3c6ff"/><stop offset="1" stop-color="#c891ff"/></linearGradient><linearGradient id="Degradado_sin_nombre_903" x1="176.7" y1="321.78" x2="211.85" y2="381.9" gradientTransform="translate(-27.37 -53.72) rotate(4.61)" gradientUnits="userSpaceOnUse"><stop offset="0" stop-color="#e3c6ff"/><stop offset="0.21" stop-color="#d7afff"/><stop offset="0.44" stop-color="#cf9eff"/><stop offset="0.69" stop-color="#ca94ff"/><stop offset="1" stop-color="#c891ff"/></linearGradient><linearGradient id="Degradado_sin_nombre_904" x1="1562.59" y1="165.84" x2="1584.62" y2="165.84" xlink:href="#Degradado_sin_nombre_906"/><linearGradient id="Degradado_sin_nombre_904-2" x1="1567.43" y1="170.2" x2="1588.91" y2="170.2" xlink:href="#Degradado_sin_nombre_906"/><linearGradient id="Degradado_sin_nombre_904-3" x1="1571.96" y1="176.13" x2="1591.7" y2="176.13" xlink:href="#Degradado_sin_nombre_906"/><linearGradient id="Degradado_sin_nombre_904-4" x1="1579.03" y1="179.3" x2="1593.22" y2="179.3" xlink:href="#Degradado_sin_nombre_906"/><linearGradient id="Degradado_sin_nombre_438-2" x1="-559.24" y1="230.45" x2="-584.98" y2="155.22" gradientTransform="translate(677.32 78.17) rotate(-7.34)" xlink:href="#Degradado_sin_nombre_438"/><linearGradient id="Degradado_sin_nombre_437-2" x1="-567.65" y1="208.27" x2="-585.89" y2="132.4" gradientTransform="translate(677.32 78.17) rotate(-7.34)" xlink:href="#Degradado_sin_nombre_437"/><linearGradient id="Degradado_sin_nombre_905" x1="1721.53" y1="411.75" x2="1726.96" y2="435.81" gradientTransform="matrix(0.38, 0.93, -0.93, 0.38, -124.69, -1481.06)" xlink:href="#Degradado_sin_nombre_906"/><linearGradient id="Degradado_sin_nombre_904-5" x1="159.27" y1="292.9" x2="166.69" y2="325.76" gradientTransform="translate(-27.37 -53.72) rotate(4.61)" xlink:href="#Degradado_sin_nombre_906"/><linearGradient id="Degradado_sin_nombre_904-6" x1="-258.71" y1="-128.51" x2="-218.1" y2="-107.68" gradientTransform="translate(375.16 318.81) rotate(-18.58)" xlink:href="#Degradado_sin_nombre_906"/><linearGradient id="Degradado_sin_nombre_903-2" x1="168.62" y1="331.41" x2="199.83" y2="384.77" xlink:href="#Degradado_sin_nombre_903"/><linearGradient id="Degradado_sin_nombre_904-7" x1="-438.69" y1="-749.65" x2="-426.55" y2="-743.21" gradientTransform="matrix(0.72, -0.69, 0.69, 0.72, 952.58, 521.38)" xlink:href="#Degradado_sin_nombre_906"/><linearGradient id="Degradado_sin_nombre_5" x1="224.21" y1="190.93" x2="220.13" y2="342.26" gradientTransform="translate(6.1 -6.64) rotate(2.21)" gradientUnits="userSpaceOnUse"><stop offset="0" stop-color="#cf9a96"/><stop offset="1" stop-color="#a66353"/></linearGradient><linearGradient id="Degradado_sin_nombre_5-2" x1="224.25" y1="193.37" x2="215.77" y2="301.28" xlink:href="#Degradado_sin_nombre_5"/><linearGradient id="Degradado_sin_nombre_5-3" x1="248.63" y1="195.28" x2="240.15" y2="303.2" xlink:href="#Degradado_sin_nombre_5"/><linearGradient id="Degradado_sin_nombre_5-4" x1="221.28" y1="220.48" x2="213.54" y2="289.1" xlink:href="#Degradado_sin_nombre_5"/><linearGradient id="Degradado_sin_nombre_5-5" x1="201.55" y1="218.26" x2="193.82" y2="286.88" xlink:href="#Degradado_sin_nombre_5"/></defs><title>dashboard</title><g style="isolation:isolate"><g id="OBJECTS"><circle cx="88.77" cy="104.87" r="59.76" style="fill:#dc2626"/><circle cx="205.24" cy="96.44" r="31.26" transform="translate(69.65 245.17) rotate(-89.58)" style="fill:#dc2626"/><circle cx="64.27" cy="234.16" r="26.61" transform="translate(-196.96 83.62) rotate(-51.69)" style="fill:#dc2626"/><circle cx="340.83" cy="465.91" r="16.87" transform="translate(-185.97 716.68) rotate(-85.89)" style="fill:#dc2626"/><path d="M47.15,381c-8.6-39.74,7.47-83.78,39.64-108.65,26.41-20.42,61.26-28,86.7-49.58,26.66-22.67,39.32-57.52,61.19-84.84C263.3,102.15,310.94,80.1,355.83,89.1c38.79,7.77,71.21,37.82,86.42,74.34s14.35,78.52,2.4,116.23-34.35,71.45-60.77,100.9c-32.42,36.14-72,66.95-117.81,83C191.36,489.86,67,472.71,47.15,381Z" transform="translate(-37.66 -55.8)" style="fill:#dc2626"/><path d="M427.48,354.62c3.3-3.37,7-6,11.07-6.58,10.92-1.64,13.34,9.83,12.31,17.53-4.31,32.13-26.87,87.61-71.74,83.94-23.31-1.91-22.47-19.43-8.06-30.94a215.86,215.86,0,0,0,43.69-46.45C417.86,367.59,422.14,360.08,427.48,354.62Z" transform="translate(-37.66 -55.8)" style="fill:#dc2626"/><path d="M211.35,151.42h54.46c0-4.36,1-12,1.07-13.12,1-11.09.84-22.39.62-33.51-.1-4.76-.28-9.51-.57-14.26-.48-7.84-2.63-15.51-7.07-21.87-4.2-6-8.28-10.26-15.63-11.18A27,27,0,0,0,227.06,61c-13,7.78-14.22,24.32-15.59,38.45a278.91,278.91,0,0,0-1.07,37.69C210.44,138.16,210.91,145.68,211.35,151.42Z" transform="translate(-37.66 -55.8)" style="fill:#383849"/><path d="M291.08,200h0a9.54,9.54,0,0,0,5-12.52l-16-22.79a9.55,9.55,0,0,0-12.53-5h0a9.54,9.54,0,0,0-5,12.53l16,22.79A9.54,9.54,0,0,0,291.08,200Z" transform="translate(-37.66 -55.8)" style="fill:url(#Degradado_sin_nombre_10)"/><path d="M291.08,200h0a9.54,9.54,0,0,0,5-12.52l-16-22.79a9.55,9.55,0,0,0-12.53-5h0a9.54,9.54,0,0,0-5,12.53l16,22.79A9.54,9.54,0,0,0,291.08,200Z" transform="translate(-37.66 -55.8)" style="fill:url(#Degradado_sin_nombre_21)"/><path d="M279.26,175.61c1.92-1.29,3.81-2.63,5.69-4l-4.89-6.95a9.54,9.54,0,1,0-17.53,7.52l6.77,9.63C272.61,179.75,276,177.79,279.26,175.61Z" transform="translate(-37.66 -55.8)" style="fill:#ff906e;opacity:0.5;mix-blend-mode:multiply"/><path d="M251.74,139.2h26.77a0,0,0,0,1,0,0v37.59a0,0,0,0,1,0,0h-1.88a24.88,24.88,0,0,1-24.88-24.88V139.2A0,0,0,0,1,251.74,139.2Z" transform="translate(533.41 142.86) rotate(156.78)" style="fill:#ff6a3d"/><path d="M247,147A24.87,24.87,0,0,1,279.63,160l4.42,10.3.78-.33-5-11.68a24.87,24.87,0,0,0-32.67-13.06l-1.73.74.59,1.38Z" transform="translate(-37.66 -55.8)" style="fill:#ffe3db"/><rect x="258.61" y="172.65" width="26.77" height="2.73" transform="translate(-84.23 65.52) rotate(-23.22)" style="fill:#fff"/><path d="M185.87,200h0a9.54,9.54,0,0,1-5-12.52l16-22.79a9.55,9.55,0,0,1,12.53-5h0a9.54,9.54,0,0,1,5,12.53L198.4,195A9.54,9.54,0,0,1,185.87,200Z" transform="translate(-37.66 -55.8)" style="fill:url(#Degradado_sin_nombre_10-2)"/><path d="M185.87,200h0a9.54,9.54,0,0,1-5-12.52l16-22.79a9.55,9.55,0,0,1,12.53-5h0a9.54,9.54,0,0,1,5,12.53L198.4,195A9.54,9.54,0,0,1,185.87,200Z" transform="translate(-37.66 -55.8)" style="fill:url(#Degradado_sin_nombre_21-2)"/><path d="M197.69,175.61c-1.93-1.29-3.81-2.63-5.69-4l4.89-6.95a9.54,9.54,0,1,1,17.53,7.52l-6.77,9.63C204.34,179.75,200.94,177.79,197.69,175.61Z" transform="translate(-37.66 -55.8)" style="fill:#ff906e;opacity:0.5;mix-blend-mode:multiply"/><path d="M223.32,139.2h1.88a0,0,0,0,1,0,0v37.59a0,0,0,0,1,0,0H198.44a0,0,0,0,1,0,0V164.08A24.88,24.88,0,0,1,223.32,139.2Z" transform="translate(41.78 -126.51) rotate(23.22)" style="fill:#ff6a3d"/><path d="M197.7,160A24.87,24.87,0,0,1,230.37,147l.63.27.53-1.25-1.73-.74a24.89,24.89,0,0,0-32.68,13.06l-5,11.68,1.11.47Z" transform="translate(-37.66 -55.8)" style="fill:#ffe3db"/><rect x="203.59" y="160.63" width="2.73" height="26.77" transform="translate(-73.42 237.96) rotate(-66.78)" style="fill:#fff"/><path d="M259.9,147l-.49-.31c-4.69-3-7.62-8.77-7.62-15.06V115.08h-25.9v16.58c0,6.29-2.93,12.07-7.62,15.06l-1.32.84v38H259.9Z" transform="translate(-37.66 -55.8)" style="fill:#ffae90;stroke:#ff906e;stroke-miterlimit:10;stroke-width:1.62532px"/><path d="M275.66,271.07h0s-9.27-46-8.84-57c.1-2.57,1.22-6.45,2.74-10.63,5.17-14.18,5.71-14.75,1.63-29.34l-.06-.18c-1.82-6.64-5.85-27-5.85-27a55.26,55.26,0,0,1-7.26-4.51c-1.22,9-10.69,16.43-19.06,16.63-8.36-.2-17.84-7.62-19.06-16.63a55.26,55.26,0,0,1-7.26,4.51s-4,20.36-5.85,27a1.21,1.21,0,0,0,0,.18c-4.09,14.59-3.54,15.16,1.62,29.34,1.52,4.18,2.64,8.06,2.74,10.63.44,11-8.84,57-8.84,57h0A60.58,60.58,0,0,0,275.66,271.07Z" transform="translate(-37.66 -55.8)" style="fill:#ff6a3d"/><path d="M270.47,274.52s-8.4-47.5-8-58.14a44.34,44.34,0,0,1,2.31-10.32c4.35-13.75,4.81-14.3,1.37-28.46,0-.06,0-.12-.05-.17C264.53,171,260,146,260,146s-6,16.45-21,17c-14.56-.58-20.9-17.24-20.9-17.24s-4.67,25.23-6.21,31.68a.85.85,0,0,0,0,.17c-3.45,14.16-3,14.71,1.36,28.46a44.34,44.34,0,0,1,2.31,10.32c.37,10.64-8.27,58.32-8.27,58.32A60,60,0,0,0,270.47,274.52Z" transform="translate(-37.66 -55.8)" style="fill:#eb5826"/><path d="M239.45,163.43c9.15-.23,19.42-8.27,22.26-18.56-1-.63-2.21-1.43-3.69-2.45-1.22,9-10.69,16.43-19.06,16.63-8.36-.2-17.84-7.62-19.06-16.63-1.09.75-2,1.38-2.85,1.91C219.68,154.88,230.14,163.2,239.45,163.43Z" transform="translate(-37.66 -55.8)" style="fill:#fff"/><path d="M267.48,158.57c1.89,9.11,4,18.15,6.14,27.2" transform="translate(-37.66 -55.8)" style="fill:none;stroke:#383849;stroke-linecap:round;stroke-linejoin:round;stroke-width:1.3741px"/><path d="M264.91,161.15q2.22,3.18,4.42,6.38" transform="translate(-37.66 -55.8)" style="fill:none;stroke:#383849;stroke-linecap:round;stroke-linejoin:round;stroke-width:1.3741px"/><path d="M210.9,158.57c-2.11,9.05-4.46,18-6.78,27" transform="translate(-37.66 -55.8)" style="fill:none;stroke:#383849;stroke-linecap:round;stroke-linejoin:round;stroke-width:1.3741px"/><path d="M213.4,161.22l-4.57,6.25" transform="translate(-37.66 -55.8)" style="fill:none;stroke:#383849;stroke-linecap:round;stroke-linejoin:round;stroke-width:1.3741px"/><path d="M219.33,151.35A27.23,27.23,0,0,0,239,163.29" transform="translate(-37.66 -55.8)" style="fill:none;stroke:#383849;stroke-linecap:round;stroke-linejoin:round;stroke-width:1.3741px"/><path d="M243.57,163.1a15.46,15.46,0,0,0,8.05-4" transform="translate(-37.66 -55.8)" style="fill:none;stroke:#383849;stroke-linecap:round;stroke-linejoin:round;stroke-width:1.3741px"/><path d="M228.36,207.21a23.06,23.06,0,0,1,21.11.34" transform="translate(-37.66 -55.8)" style="fill:none;stroke:#383849;stroke-linecap:round;stroke-linejoin:round;stroke-width:1.3741px"/><path d="M214.82,227.88a65.25,65.25,0,0,0,31.37,29.57" transform="translate(-37.66 -55.8)" style="fill:none;stroke:#383849;stroke-linecap:round;stroke-linejoin:round;stroke-width:1.3741px"/><path d="M211.66,107.23c.56,1.21,4.89,7.29,6.36,4.76.74-1.27.18-4.42.07-5.84a33.69,33.69,0,0,0-1-5.91,7.37,7.37,0,0,0-2-3.77c-2.21-1.87-4.41-.2-4.92,2.19C209.53,101.57,210.44,104.64,211.66,107.23Z" transform="translate(-37.66 -55.8)" style="fill:#ff906e"/><path d="M212.53,96.85l.72-.1" transform="translate(-37.66 -55.8)" style="fill:none;stroke:#ffccc4;stroke-linecap:round;stroke-miterlimit:10;stroke-width:1.9384800000000002px"/><path d="M267.38,107.48c-.57,1.21-5,7.25-6.4,4.71-.74-1.28-.15-4.42,0-5.84a34.73,34.73,0,0,1,1.08-5.91,7.26,7.26,0,0,1,2-3.75c2.22-1.85,4.4-.16,4.9,2.23C269.56,101.84,268.62,104.9,267.38,107.48Z" transform="translate(-37.66 -55.8)" style="fill:#ff906e"/><path d="M266.5,97a3.64,3.64,0,0,1,1.62,3.3" transform="translate(-37.66 -55.8)" style="fill:none;stroke:#ffccc4;stroke-linecap:round;stroke-miterlimit:10;stroke-width:1.9384800000000002px"/><path d="M263.2,102.26c0,1.8-.16,3.61-.29,5.42-.36,5.5-1.21,11-3.73,15.92s-6.23,9.34-10.65,11.61a19.76,19.76,0,0,1-22.08-2.77c-4.53-3.9-7.44-9.73-8.87-15.83a44.45,44.45,0,0,1-1.27-15.5s1.45-16.17,4.53-23.1,8.56-17.28,18-16.84C254.1,61.88,264.23,70.23,263.2,102.26Z" transform="translate(-37.66 -55.8)" style="fill:url(#Degradado_sin_nombre_10-3)"/><path d="M256.48,69.11c-4.29-5.53-10.4-7.6-17.68-7.94-9-.42-14.38,9-17.53,15.87v49.05a24.61,24.61,0,0,0,5.18,6.35,19.76,19.76,0,0,0,22.08,2.77,23.54,23.54,0,0,0,8-7.19Z" transform="translate(-37.66 -55.8)" style="fill:url(#Degradado_sin_nombre_3)"/><path d="M238.8,61.17c-5.08-.21-9.37,2.62-12.52,6.38A29.89,29.89,0,0,0,219.51,81a79.12,79.12,0,0,0-.9,14.09,29.47,29.47,0,0,1,2.72-9.45c.07,2.4.23,4.81.45,7.21h26.05a33.21,33.21,0,0,0,.78-4.15c.25,1.38.5,2.76.74,4.15H257a2.82,2.82,0,0,1,.05-.43c.25-1.57.52-3.14.7-4.73,0-.28-.07-1.67.23-1.75s1.06,1.77,1.2,2.1a91.26,91.26,0,0,1,4,11.6q0-.78,0-1.56C264.23,69.3,254.1,61.81,238.8,61.17Z" transform="translate(-37.66 -55.8)" style="fill:#ff906e;opacity:0.5;mix-blend-mode:multiply"/><path d="M233.12,92.81a17.55,17.55,0,0,0-9.87.39c-1.13.38-.64,2.17.49,1.79a15.71,15.71,0,0,1,8.88-.39c1.16.28,1.66-1.51.5-1.79Z" transform="translate(-37.66 -55.8)" style="fill:#383849"/><path d="M246.72,94.66a15.62,15.62,0,0,1,8.88.48c1.13.38,1.62-1.41.49-1.79a17.52,17.52,0,0,0-9.86-.48c-1.16.27-.67,2.06.49,1.79Z" transform="translate(-37.66 -55.8)" style="fill:#383849"/><path d="M251.11,105.81a3.07,3.07,0,1,1,3-3,3.06,3.06,0,0,1-3,3Z" transform="translate(-37.66 -55.8)" style="fill:#383849"/><path d="M227.76,105.69a3,3,0,1,1,3-3,3.06,3.06,0,0,1-3,3Z" transform="translate(-37.66 -55.8)" style="fill:#383849"/><polyline points="197.43 41.94 199.93 47.37 198.68 58.01" style="fill:none;stroke:#ff906e;stroke-linecap:round;stroke-miterlimit:10;stroke-width:1.59071px;opacity:0.5;mix-blend-mode:multiply"/><line x1="201.84" y1="47.37" x2="200.59" y2="58.01" style="fill:none;stroke:#ffccc4;stroke-linecap:round;stroke-miterlimit:10;stroke-width:1.9384800000000002px"/><path d="M226.29,112.91,224.41,111a1.71,1.71,0,0,1,1.21-2.91h3.75a1.71,1.71,0,0,1,1.2,2.91l-1.87,1.87A1.7,1.7,0,0,1,226.29,112.91Z" transform="translate(-37.66 -55.8)" style="fill:#ffccc4"/><path d="M250.36,112.91,248.48,111a1.71,1.71,0,0,1,1.21-2.91h3.75a1.71,1.71,0,0,1,1.2,2.91l-1.87,1.87A1.7,1.7,0,0,1,250.36,112.91Z" transform="translate(-37.66 -55.8)" style="fill:#ffccc4"/><path d="M265,76.49c-2-10.61-9.6-18.46-19.39-20.07-9.48-1.56-20.94-.63-26.57,8.4a32.38,32.38,0,0,0-4.22,11.67Z" transform="translate(-37.66 -55.8)" style="fill:#fff"/><path d="M215.5,99.63c.37,2.41.77,4.82,1.15,7.22h0a15.34,15.34,0,0,1,.47-3.68c.21-1.3.46-2.6.77-3.89.49-2.07.63-4.1,1-6.21.69-4.36,1.68-8.68,2.69-13,.11-.49.23-1,.34-1.45a66.9,66.9,0,0,1,1,12.11,162.2,162.2,0,0,1,24.43-.92l1.29-7.49.54,7.58a34.78,34.78,0,0,1,6.08.77,69.19,69.19,0,0,0,1.91-12c1.08,5.66,3.46,8.75,4.4,14.37a84.33,84.33,0,0,1,.84,13.83h.19a48.59,48.59,0,0,1,.78-4.93c.58-2.71,1.84-5.1,2.67-7.49s.3-6.27.23-8.8a56.38,56.38,0,0,0-.78-7.89c-1.91-10.91-9.67-19-19.78-20.66-9.62-1.56-21.25-.62-27,8.4-5.39,8.52-5.18,19.19-5.49,28.87a.57.57,0,0,0,0,.29.78.78,0,0,0,.33.32C215,96,215.27,98.07,215.5,99.63Z" transform="translate(-37.66 -55.8)" style="fill:#383849"/><path d="M222.1,70c.49-.38,1-.75,1.49-1.09-.32,4.86,1,16.2,1,16.2h22.33s1.5-6.79,2.18-9.23c-.22.79,1.76,9.23,1.76,9.23h3.83l3-12.28s6.51,3.63,7.75,4.83c-1.94-10.85-9.68-18.9-19.75-20.54-9.62-1.56-21.25-.62-27,8.4a33.09,33.09,0,0,0-4.47,12.79A35.93,35.93,0,0,1,222.1,70Z" transform="translate(-37.66 -55.8)" style="fill:#434357"/><g style="mix-blend-mode:soft-light"><path d="M252,61.12a11.4,11.4,0,0,1,3.26,1.79,11.08,11.08,0,0,1,2.5,2.75c-.95-.8-1.83-1.63-2.8-2.37S253.05,61.85,252,61.12Z" transform="translate(-37.66 -55.8)" style="fill:#fff"/></g><g style="mix-blend-mode:soft-light"><path d="M264.41,81.8a21.43,21.43,0,0,1,.8,4.51,21.94,21.94,0,0,1-.14,4.58c-.16-1.53-.21-3-.34-4.55S264.47,83.33,264.41,81.8Z" transform="translate(-37.66 -55.8)" style="fill:#fff"/></g><path d="M200.84,140.79" transform="translate(-37.66 -55.8)" style="fill:#ffae90;stroke:#ff906e;stroke-miterlimit:10;stroke-width:2.86749px"/><path d="M261.54,118.21c.25.33,1,1.31,1.72,2.32a2,2,0,0,0,3.41-.31L265.61,113l6.25-1.92,5.41,7.47.25,16,17.88,53.82a9.54,9.54,0,0,1-7.81,11.12h0a9.32,9.32,0,0,1-10.5-7.83L267.57,139l-.15,0-4.84-10.25-4.77-6.2C254.6,119.63,259.15,115.12,261.54,118.21Z" transform="translate(-37.66 -55.8)" style="fill:url(#Degradado_sin_nombre_2)"/><g style="opacity:0.5;mix-blend-mode:multiply"><path d="M275.4,122.76l1.76-4.39-5.3-7.32L265.61,113l1.06,7.25a2,2,0,0,1-3.41.31c-.74-1-1.47-2-1.72-2.32-2.39-3.09-6.94,1.42-3.73,4.35l4.77,6.2L267.42,139l.15,0,9.52,52.64a9.32,9.32,0,0,0,10.5,7.83h0a9.16,9.16,0,0,0,5.65-3.17l-18.3-60.54Z" transform="translate(-37.66 -55.8)" style="fill:url(#Degradado_sin_nombre_24)"/></g><polyline points="239.08 66.48 239.49 78.52 257.09 132.14" style="fill:none;stroke:#ffccc4;stroke-linecap:round;stroke-miterlimit:10;stroke-width:1.01512px;mix-blend-mode:soft-light"/><path d="M262.58,122.42c.57,2.27,2.9.68,4.15.09.18-.08.45.06.37.29-.56,1.63,1.24,2.19,2.36,1.74a5.11,5.11,0,0,0,1.73-1.38,26.35,26.35,0,0,0,3.11-3.71.24.24,0,0,1,.28-.12c.91.3,1.81.63,2.72,1l0-1.76-5.41-7.47L265.61,113l1.06,7.25a2,2,0,0,1-3.41.31l-.41-.56A4.26,4.26,0,0,0,262.58,122.42Z" transform="translate(-37.66 -55.8)" style="fill:#d96d4c"/><path d="M215.41,118.21c-.25.33-1,1.31-1.72,2.32a2,2,0,0,1-3.41-.31l1.06-7.25-6.25-1.92-5.41,7.47-.25,16-17.88,53.82a9.54,9.54,0,0,0,7.81,11.12h0a9.32,9.32,0,0,0,10.5-7.83L209.38,139l.14,0,4.85-10.25,4.77-6.2C222.35,119.63,217.79,115.12,215.41,118.21Z" transform="translate(-37.66 -55.8)" style="fill:url(#Degradado_sin_nombre_2-2)"/><g style="opacity:0.5;mix-blend-mode:multiply"><path d="M201.55,122.76l-1.76-4.39,5.3-7.32,6.25,1.92-1.06,7.25a2,2,0,0,0,3.41.31c.74-1,1.47-2,1.72-2.32,2.38-3.09,6.94,1.42,3.73,4.35l-4.77,6.2L209.52,139l-.14,0-9.52,52.64a9.32,9.32,0,0,1-10.5,7.83h0a9.16,9.16,0,0,1-5.65-3.17L202,135.73Z" transform="translate(-37.66 -55.8)" style="fill:url(#Degradado_sin_nombre_24-2)"/></g><polyline points="162.55 66.48 162.15 78.52 144.54 132.14" style="fill:none;stroke:#ffccc4;stroke-linecap:round;stroke-miterlimit:10;stroke-width:1.01512px;mix-blend-mode:soft-light"/><path d="M214.37,122.42c-.58,2.27-2.9.68-4.15.09-.18-.08-.45.06-.37.29.56,1.63-1.24,2.19-2.36,1.74a5.24,5.24,0,0,1-1.74-1.38,27,27,0,0,1-3.1-3.71.24.24,0,0,0-.28-.12c-.91.3-1.81.63-2.72,1l0-1.76,5.41-7.47,6.25,1.92-1.06,7.25a2,2,0,0,0,3.41.31l.41-.56A4.34,4.34,0,0,1,214.37,122.42Z" transform="translate(-37.66 -55.8)" style="fill:#d96d4c"/><path d="M264.08,106.43a16.62,16.62,0,0,0-1,3.5,31.86,31.86,0,0,1-4.7,11.54" transform="translate(-37.66 -55.8)" style="fill:none;stroke:#fff;stroke-linecap:round;stroke-linejoin:round;stroke-width:1.45442px"/><path d="M267.17,120.39a37.52,37.52,0,0,1-11.63,21.17" transform="translate(-37.66 -55.8)" style="fill:none;stroke:#fff;stroke-linecap:round;stroke-linejoin:round;stroke-width:1.45442px"/><path d="M208.78,105.08c3.33,4.9,7,11.3,10.35,16.21" transform="translate(-37.66 -55.8)" style="fill:none;stroke:#fff;stroke-linecap:round;stroke-linejoin:round;stroke-width:1.45442px"/><path d="M208.46,109a19.23,19.23,0,0,0,.59,11.82c2.54,7.38,7.34,13.68,11.78,19.92" transform="translate(-37.66 -55.8)" style="fill:none;stroke:#fff;stroke-linecap:round;stroke-linejoin:round;stroke-width:1.45442px"/><path d="M220.08,118h37.44a3,3,0,0,1,3,3v10a19.55,19.55,0,0,1-19.55,19.55h-4.27a19.55,19.55,0,0,1-19.55-19.55V121A3,3,0,0,1,220.08,118Z" transform="translate(-37.03 -56.91) rotate(0.27)" style="fill:#fff"/><line x1="187.98" y1="67.6" x2="213.75" y2="67.72" style="fill:none;stroke:#ccc;stroke-linecap:round;stroke-linejoin:round;stroke-width:1.45442px"/><line x1="187.96" y1="73.04" x2="213.73" y2="73.16" style="fill:none;stroke:#ccc;stroke-linecap:round;stroke-linejoin:round;stroke-width:1.45442px"/><line x1="187.93" y1="78.49" x2="213.7" y2="78.61" style="fill:none;stroke:#ccc;stroke-linecap:round;stroke-linejoin:round;stroke-width:1.45442px"/><line x1="187.91" y1="83.94" x2="213.68" y2="84.06" style="fill:none;stroke:#ccc;stroke-linecap:round;stroke-linejoin:round;stroke-width:1.45442px"/><path d="M271.51,108.85a3,3,0,0,0-.28-1.72,2.77,2.77,0,0,0-1.69-1,25.94,25.94,0,0,0-5-1,2,2,0,0,0-.77,0,2.25,2.25,0,0,0-.85.59l-3.22,3.16a17.17,17.17,0,0,0-2.67,3c-.3.45-.54,1.1-.19,1.51a1.13,1.13,0,0,0,.45.29c1.55.6,3.28-.18,4.66-1.13s2.72-2.12,4.36-2.39a6.53,6.53,0,0,1,3.86.78c.59.28,1,.75,1.28.15A7.44,7.44,0,0,0,271.51,108.85Z" transform="translate(-37.66 -55.8)" style="fill:url(#Degradado_sin_nombre_10-4)"/><path d="M274.22,110.67a3.1,3.1,0,0,0-.47-1.68,2.75,2.75,0,0,0-1.8-.82,26.21,26.21,0,0,0-5.08-.35,2,2,0,0,0-.77.13,2.3,2.3,0,0,0-.77.69l-2.84,3.53a17.91,17.91,0,0,0-2.31,3.34c-.24.49-.4,1.15,0,1.52a1,1,0,0,0,.48.23c1.61.41,3.24-.57,4.5-1.68s2.46-2.43,4.06-2.9a6.58,6.58,0,0,1,3.92.3c.62.21,1.05.64,1.29,0A7.36,7.36,0,0,0,274.22,110.67Z" transform="translate(-37.66 -55.8)" style="fill:url(#Degradado_sin_nombre_10-5)"/><path d="M275.65,112.85a3.11,3.11,0,0,0-.84-1.53,2.74,2.74,0,0,0-1.93-.36,26,26,0,0,0-5,.87,2,2,0,0,0-.71.31,2.3,2.3,0,0,0-.6.86l-2,4.11a18.3,18.3,0,0,0-1.49,3.8c-.13.53-.14,1.22.33,1.49a1.13,1.13,0,0,0,.52.1c1.66,0,3-1.33,4-2.71s1.84-3,3.29-3.79a6.51,6.51,0,0,1,3.88-.64c.65.06,1.17.36,1.26-.31A7.64,7.64,0,0,0,275.65,112.85Z" transform="translate(-37.66 -55.8)" style="fill:url(#Degradado_sin_nombre_10-6)"/><path d="M274.3,119.35l-2.7,2.54a5.89,5.89,0,0,1-1.53,1.16,2,2,0,0,1-1.84,0,.91.91,0,0,1-.38-.42,1.07,1.07,0,0,1,0-.59,9.34,9.34,0,0,1,2-4.05,11.75,11.75,0,0,1,3.2-3,2.58,2.58,0,0,1,3.62.78c1,1.42.73,3.61.68,5.26" transform="translate(-37.66 -55.8)" style="fill:url(#Degradado_sin_nombre_10-7)"/><path d="M273.77,120.86a1.82,1.82,0,0,1,.87.84" transform="translate(-37.66 -55.8)" style="fill:none;stroke:#ff906e;stroke-linecap:round;stroke-miterlimit:10;stroke-width:1.4624800000000002px"/><path d="M258,111.78s3.89-4,5.73-6a.8.8,0,0,1,.73-.24l4.81,1" transform="translate(-37.66 -55.8)" style="fill:none;stroke:#ffccc4;stroke-linecap:round;stroke-miterlimit:10;stroke-width:1.01512px;mix-blend-mode:soft-light"/><path d="M261.09,115.07l4.49-6.07a1.34,1.34,0,0,1,1.13-.55l5.32.25" transform="translate(-37.66 -55.8)" style="fill:none;stroke:#ffccc4;stroke-linecap:round;stroke-miterlimit:10;stroke-width:1.01512px;mix-blend-mode:soft-light"/><path d="M265.82,115.58l1.53-2.8a1.32,1.32,0,0,1,1-.68l5.8-.5" transform="translate(-37.66 -55.8)" style="fill:none;stroke:#ffccc4;stroke-linecap:round;stroke-miterlimit:10;stroke-width:1.01512px;mix-blend-mode:soft-light"/><path d="M269,120.07a17.77,17.77,0,0,1,3.71-4.28,1.13,1.13,0,0,1,.91-.28l2.48.31" transform="translate(-37.66 -55.8)" style="fill:none;stroke:#ffccc4;stroke-linecap:round;stroke-miterlimit:10;stroke-width:1.01512px;mix-blend-mode:soft-light"/><path d="M205.44,108.85a3,3,0,0,1,.28-1.72,2.77,2.77,0,0,1,1.69-1,25.8,25.8,0,0,1,5-1,2,2,0,0,1,.77,0,2.25,2.25,0,0,1,.85.59l3.22,3.16a17.58,17.58,0,0,1,2.67,3c.3.45.54,1.1.19,1.51a1.13,1.13,0,0,1-.45.29c-1.56.6-3.28-.18-4.66-1.13s-2.72-2.12-4.36-2.39a6.52,6.52,0,0,0-3.86.78c-.59.28-1,.75-1.29.15A7.45,7.45,0,0,1,205.44,108.85Z" transform="translate(-37.66 -55.8)" style="fill:url(#Degradado_sin_nombre_10-8)"/><path d="M202.72,110.67a3.11,3.11,0,0,1,.48-1.68,2.75,2.75,0,0,1,1.8-.82,26.15,26.15,0,0,1,5.08-.35,1.93,1.93,0,0,1,.76.13,2.24,2.24,0,0,1,.78.69c.94,1.18,1.89,2.35,2.84,3.53a17.86,17.86,0,0,1,2.3,3.34c.24.49.41,1.15,0,1.52a1,1,0,0,1-.48.23c-1.61.41-3.24-.57-4.5-1.68s-2.46-2.43-4.06-2.9a6.58,6.58,0,0,0-3.92.3c-.62.21-1.06.64-1.29,0A7.66,7.66,0,0,1,202.72,110.67Z" transform="translate(-37.66 -55.8)" style="fill:url(#Degradado_sin_nombre_10-9)"/><path d="M201.3,112.85a3.11,3.11,0,0,1,.84-1.53,2.73,2.73,0,0,1,1.93-.36,26.09,26.09,0,0,1,5,.87,2,2,0,0,1,.71.31,2.3,2.3,0,0,1,.6.86q1,2.06,2,4.11a18.3,18.3,0,0,1,1.49,3.8c.12.53.14,1.22-.33,1.49a1.15,1.15,0,0,1-.52.1c-1.66,0-3-1.33-4-2.71s-1.84-3-3.29-3.79a6.53,6.53,0,0,0-3.89-.64c-.65.06-1.16.36-1.25-.31A7.34,7.34,0,0,1,201.3,112.85Z" transform="translate(-37.66 -55.8)" style="fill:url(#Degradado_sin_nombre_10-10)"/><path d="M202.65,119.35l2.7,2.54a5.89,5.89,0,0,0,1.53,1.16,2,2,0,0,0,1.84,0,.91.91,0,0,0,.38-.42,1.07,1.07,0,0,0,0-.59,9.25,9.25,0,0,0-2-4.05,11.57,11.57,0,0,0-3.19-3,2.59,2.59,0,0,0-3.63.78c-1,1.42-.73,3.61-.67,5.26" transform="translate(-37.66 -55.8)" style="fill:url(#Degradado_sin_nombre_10-11)"/><path d="M203.18,120.86a1.88,1.88,0,0,0-.88.84" transform="translate(-37.66 -55.8)" style="fill:none;stroke:#ff906e;stroke-linecap:round;stroke-miterlimit:10;stroke-width:1.4624800000000002px"/><path d="M219,111.78s-3.89-4-5.73-6a.8.8,0,0,0-.73-.24l-4.81,1" transform="translate(-37.66 -55.8)" style="fill:none;stroke:#ffccc4;stroke-linecap:round;stroke-miterlimit:10;stroke-width:1.01512px;mix-blend-mode:soft-light"/><path d="M215.86,115.07,211.37,109a1.34,1.34,0,0,0-1.13-.55l-5.33.25" transform="translate(-37.66 -55.8)" style="fill:none;stroke:#ffccc4;stroke-linecap:round;stroke-miterlimit:10;stroke-width:1.01512px;mix-blend-mode:soft-light"/><path d="M211.13,115.58l-1.54-2.8a1.29,1.29,0,0,0-1-.68l-5.79-.5" transform="translate(-37.66 -55.8)" style="fill:none;stroke:#ffccc4;stroke-linecap:round;stroke-miterlimit:10;stroke-width:1.01512px;mix-blend-mode:soft-light"/><path d="M207.94,120.07a18.22,18.22,0,0,0-3.71-4.28,1.13,1.13,0,0,0-.91-.28l-2.49.31" transform="translate(-37.66 -55.8)" style="fill:none;stroke:#ffccc4;stroke-linecap:round;stroke-miterlimit:10;stroke-width:1.01512px;mix-blend-mode:soft-light"/><path d="M314.84,293.43a28.08,28.08,0,0,1-.32-11.15,12.39,12.39,0,0,1,.94-.83c7.63-6.27,18.5.33,26.42,2.57,15,4.26,32.84,5.06,47.07,11.39,8.23,3.67,10.45,12.83,7.63,20.39a12.23,12.23,0,0,1-3.05,4.53c-3,2.72-7.38,3.18-11.26,3.08-7.85-.19-15.77-2.14-23.33-4.1-8-2.08-15.91-4.6-23.79-7.16q-6.07-2-12.16-4A32.14,32.14,0,0,1,314.84,293.43Z" transform="translate(-37.66 -55.8)" style="fill:#773974"/><path d="M314.6,283.9l-.34.27c.06-.64.15-1.27.26-1.9.28-.26.59-.54.94-.82,7.63-6.27,18.5.33,26.42,2.57,15,4.26,32.84,5.06,47.07,11.39,8.24,3.68,10.45,12.85,7.62,20.42-.09.23-.19.45-.29.67,1.88-7.16-.68-14.12-8.28-17.5-14.22-6.34-32-8.27-47-12.52C333.1,284.23,322.23,277.64,314.6,283.9Z" transform="translate(-37.66 -55.8)" style="fill:#8e438a"/><path d="M314.84,293.43a28.08,28.08,0,0,1-.32-11.15,12.39,12.39,0,0,1,.94-.83l.48-.37c5.94,4.33,12.83,6.71,19.7,9.09,4,1.38,8.3,2.83,12.26,4.23A103.66,103.66,0,0,0,362,298.34c8.92,1.8,18.48,2.3,26.72,6.51a25,25,0,0,1,8.74,7.52,18.14,18.14,0,0,1-1.07,3.79,11.77,11.77,0,0,1-2.9,4.17c-3,2.72-7.38,3.18-11.26,3.08-7.85-.19-56.32-7.66-60.37-9C318,310.25,316.12,299,314.84,293.43Z" transform="translate(-37.66 -55.8)" style="fill:#693266"/><path d="M327.29,280.7s21.17,7.11,30.06,8.35c0,0,39,4.79,39.77,19.2" transform="translate(-37.66 -55.8)" style="fill:none;stroke:#ff2c40;stroke-linecap:round;stroke-miterlimit:10;stroke-width:0.741791px"/><path d="M314.27,284.16h0c0-.06,0-.12,0-.18.07-.57.14-1.14.24-1.71h0c.28-.26.59-.54.94-.82,3.56-2.92,5.84-2.56,10.18-1.63,4.57,13,11.51,25.4,16.62,38.21-10.22-1.62-18.76-3.11-20.36-3.65-3.91-4.13-5.78-15.42-7.06-20.95A28.25,28.25,0,0,1,314.27,284.16Z" transform="translate(-37.66 -55.8)" style="fill:#693266;opacity:0.30000000000000004;mix-blend-mode:multiply"/><path d="M290.36,445c-39.05-2-48-8.5-52-10.91,0-.76,6.62-61.31,6.62-61.31s1.55-93.46,1.68-94.56c.17-1.55,43.71-20.09,43.71-20.09l37.72,21.28L340.32,428C333,434.1,310.4,446.07,290.36,445Z" transform="translate(-37.66 -55.8)" style="fill:#773974"/><path d="M254.49,378.59s1.39-91.13,1.5-92.2c.16-1.51,39.09-19.59,39.09-19.59l33.65,20.72.73,8.83,10,132.35c-7.94,6.45-15,15.33-46.88,17.09-19,1-31.24-1.61-39.48-4.4-2.19-1.3-3.59-2.39-4.53-3C248.58,437.64,254.49,378.59,254.49,378.59Z" transform="translate(-37.66 -55.8)" style="fill:#693266"/><path d="M324.33,356.45c-5.6,22-14.88,43.67-31.09,59.51" transform="translate(-37.66 -55.8)" style="fill:none;stroke:#1f1f49;stroke-linecap:round;stroke-linejoin:round;stroke-width:1.66311px"/><path d="M323,386.66q-3.74,8.63-8.31,16.84" transform="translate(-37.66 -55.8)" style="fill:none;stroke:#1f1f49;stroke-linecap:round;stroke-linejoin:round;stroke-width:1.66311px"/><path d="M331.5,315.33q-.13-12.1-1.25-24.17" transform="translate(-37.66 -55.8)" style="fill:none;stroke:#1f1f49;stroke-linecap:round;stroke-linejoin:round;stroke-width:1.66311px"/><path d="M334.25,297.47a56,56,0,0,0-3.27,9.4" transform="translate(-37.66 -55.8)" style="fill:none;stroke:#1f1f49;stroke-linecap:round;stroke-linejoin:round;stroke-width:1.66311px"/><polygon points="222.48 258.67 219.84 328.08 222.15 387.24 198.68 378.98 195.04 322.79 211.57 253.71 222.48 258.67" style="fill:#693266;opacity:0.30000000000000004;mix-blend-mode:multiply"/><path d="M328.27,282.31l-37.92-20.72s-43.54,18.55-43.71,20.09c-.13,1.1-.13-2.32,0-3.42.17-1.55,43.71-20.09,43.71-20.09l37.72,21.28Z" transform="translate(-37.66 -55.8)" style="fill:#8e438a"/><line x1="290.38" y1="224.99" x2="273.77" y2="215.91" style="fill:none;stroke:#ff2c40;stroke-linecap:round;stroke-miterlimit:10;stroke-width:0.741791px"/><line x1="208.98" y1="225.88" x2="232.2" y2="215.17" style="fill:none;stroke:#ff2c40;stroke-linecap:round;stroke-miterlimit:10;stroke-width:0.741791px"/><circle cx="244.96" cy="255.92" r="5.06" style="fill:#ff2c40"/><polygon points="281.45 210.19 254.37 196.35 271.86 230.8 281.45 210.19" style="fill:#693266"/><polygon points="222.62 196.03 255.36 194.04 268.88 219.93 232.25 214.92 222.62 196.03" style="fill:#693266"/><polygon points="223.03 196.85 222.62 196.03 255.36 194.04 255.79 194.86 223.03 196.85" style="fill:#8e438a"/><path d="M275.09,236.88c0-.26,0-1,0-2h32.21a224.2,224.2,0,0,0,2.71,44c.57,3.59.44,7.5-3.08,9.51-2.54,1.44-5.73.58-8.45-.47a73.84,73.84,0,0,1-19.9-11.52c-5.4-4.37-3.44-11.33-3.44-17.79Z" transform="translate(-37.66 -55.8)" style="fill:url(#Degradado_sin_nombre_10-12)"/><path d="M275.85,234.88a81.13,81.13,0,0,0,2,15.91c3,12.15,12.26,23.43,24.88,26.3a33.66,33.66,0,0,0,7.07.78,224.14,224.14,0,0,1-2.56-43Z" transform="translate(-37.66 -55.8)" style="fill:#ff906e"/><path d="M276,242.22c.54,4.79.36,18.79.09,23" transform="translate(-37.66 -55.8)" style="fill:none;stroke:#ffdcd6;stroke-linecap:round;stroke-miterlimit:10;stroke-width:1.33061px"/><path d="M302.87,289.75l-17.15-20.57-25.45-17.35,9.64,18.89S284.37,287.05,302.87,289.75Z" transform="translate(-37.66 -55.8)" style="fill:#773974"/><polygon points="247.99 213.38 229.4 204.33 232.25 214.92 222.62 196.03 247.99 213.38" style="fill:#8e438a"/><path d="M302.87,289.75c-11.42-1.66-21.29-8.52-27.18-13.53l-3.28-13.41,13.46,6.55Z" transform="translate(-37.66 -55.8)" style="fill:#693266"/><path d="M308.3,288.58,319.11,266s-2,11.24-5.29,17.14S308.3,288.58,308.3,288.58Z" transform="translate(-37.66 -55.8)" style="fill:#773974"/><path d="M315.67,279a30.61,30.61,0,0,1-1.85,4.13c-3.32,5.89-5.52,5.44-5.52,5.44l8.45-17.64Z" transform="translate(-37.66 -55.8)" style="fill:#693266"/><polygon points="281.45 210.19 270.64 232.78 279.92 210.54 272.1 206.48 271.94 205.07 281.45 210.19" style="fill:#8e438a"/><path d="M303.28,290.21q-9-9.87-17.65-20.12" transform="translate(-37.66 -55.8)" style="fill:none;stroke:#1f1f49;stroke-linecap:round;stroke-linejoin:round;stroke-width:1.66311px"/><path d="M316.45,269.22q-3.87,9.6-8.25,19" transform="translate(-37.66 -55.8)" style="fill:none;stroke:#1f1f49;stroke-linecap:round;stroke-linejoin:round;stroke-width:1.66311px"/><path d="M266.52,212.28c-1.64,20.42,10.62,41.9,30.56,48.33a40.91,40.91,0,0,0,9,1.81,14.54,14.54,0,0,0,4.61-.28,14.24,14.24,0,0,0,7.81-5.38c4.92-6.42,6.86-14.75,7.6-22.89a86.61,86.61,0,0,0-1.75-28.67c-1.81-7.37-6.91-13.81-13.3-18.09a28.77,28.77,0,0,0-29.16-1.17C272,191.2,267.37,201.55,266.52,212.28Z" transform="translate(-37.66 -55.8)" style="fill:url(#Degradado_sin_nombre_10-13)"/><path d="M281.38,186.22l.48-.28A28.77,28.77,0,0,1,311,187.11a34.5,34.5,0,0,1,8.7,8.34,77.29,77.29,0,0,1,4,14.92,70.11,70.11,0,0,1,1.42,8.48c.16,2.73-.54,5.42-.69,8.13-.14,2.37,0,4.75-.12,7.12a69.44,69.44,0,0,1-.78,7.34,61.32,61.32,0,0,1-3.7,13.36c-.43.67-.88,1.33-1.37,2a14.24,14.24,0,0,1-7.81,5.38,14.54,14.54,0,0,1-4.61.28,40.91,40.91,0,0,1-9-1.81A39.4,39.4,0,0,1,293,259a28,28,0,0,1-2.29-5.95,55.57,55.57,0,0,1-1.27-10.2,62.12,62.12,0,0,1,0-9.93c.3-3,.93-6.14.28-9.13-.59-2.75-2.05-5.29-1.74-8.18.28-2.6,1.5-5,1.54-7.65.05-3-1.72-5.93-2.84-8.6C284.82,195,283,190.67,281.38,186.22Z" transform="translate(-37.66 -55.8)" style="fill:url(#Degradado_sin_nombre_3-2)"/><path d="M318.7,197.17c-2,3.39-8.35,3.15-11.67,3.27-10.35.4-21.34-1.79-29.78-8.07a.71.71,0,0,1-.26-1.06c5.37-13.26,24.12-10,33.85-4.21a25,25,0,0,1,3.56,2.58c.75.66,5.38,4.45,5.09,5.46A8.64,8.64,0,0,1,318.7,197.17Z" transform="translate(-37.66 -55.8)" style="fill:#ff906e;opacity:0.5;mix-blend-mode:multiply"/><path d="M284.42,211.88a31.28,31.28,0,0,0,2-11.3c0-.83-.39-5.78-1.29-6.05,8.59,2.67,18.09,4.11,27,2.79a15,15,0,0,0,6.69-2.86c.23-.15.5-.32.76-.22a.84.84,0,0,1,.4.41,47.88,47.88,0,0,1,5,12,26.09,26.09,0,0,0-.73-6.86c-.84-4.07-1.83-8.17-3.89-11.77-6.29-11-24.94-14-35.92-10.56-12.84,4-20.42,17.19-20,31.07a104.87,104.87,0,0,0,2,17.4c.47,2.39.36,5.81,3.38,4.2,2.42-1.3,4.7-2.79,7.21-3.95a.35.35,0,0,1,.24-.05c.13,0,.19.16.24.28.66,1.7,1.31,3.4,2,5.11.75,1.93,3.49,0,4.82-.71-.9-4.32-2.44-8.53-3.33-12.88a2.23,2.23,0,0,1-.05-.85,2.19,2.19,0,0,1,.52-.86,15.38,15.38,0,0,0,2.66-3.37C284.15,212.53,284.29,212.21,284.42,211.88Z" transform="translate(-37.66 -55.8)" style="fill:#fff"/><path d="M284.69,212.68a31.72,31.72,0,0,0,2-11.3c0-.83-.4-5.78-1.29-6.06,8.58,2.67,18.09,4.12,27,2.79a14.88,14.88,0,0,0,6.69-2.85.93.93,0,0,1,.76-.23.84.84,0,0,1,.39.42,47.15,47.15,0,0,1,5,12,25.39,25.39,0,0,0-.73-6.87,39.22,39.22,0,0,0-3.89-11.76c-6.28-11-24.94-14-35.92-10.56-12.84,4-20.41,17.19-20,31.06a104.74,104.74,0,0,0,1.95,17.4c.48,2.39.36,5.82,3.38,4.2,2.43-1.3,4.71-2.79,7.22-3.94a.41.41,0,0,1,.24-.06c.12,0,.19.17.24.29l2,5.1c.75,1.94,3.49,0,4.82-.7-.89-4.32-2.44-8.53-3.32-12.89a2,2,0,0,1,0-.85,2,2,0,0,1,.52-.85,15,15,0,0,0,2.65-3.37C284.42,213.33,284.56,213,284.69,212.68Z" transform="translate(-37.66 -55.8)" style="fill:#383849"/><path d="M318.52,185.94a7,7,0,0,1-3.67,3.88c-2.85,1.34-6.06,1.5-9.15,1.71-8.74.59-17.81.8-26.15-2.31-.22-.09-.37.15-.34.34,1.53,10.67-4.07,23.66-14.06,27.35-.25-2.52-.42-5-.49-7.59-.4-13.87,7.17-27,20-31.06C294.63,175.15,310.89,177.32,318.52,185.94Z" transform="translate(-37.66 -55.8)" style="fill:#434357"/><path d="M302.19,235.14l2.15-2.15a2,2,0,0,0-1.37-3.33h-4.3a2,2,0,0,0-1.38,3.33l2.15,2.15A1.94,1.94,0,0,0,302.19,235.14Z" transform="translate(-37.66 -55.8)" style="fill:url(#Degradado_sin_nombre_10-14)"/><path d="M323.23,235.38l2.15-2.15A2,2,0,0,0,324,229.9h-4.3a2,2,0,0,0-1.38,3.33l2.15,2.15A2,2,0,0,0,323.23,235.38Z" transform="translate(-37.66 -55.8)" style="fill:url(#Degradado_sin_nombre_10-15)"/><path d="M316.65,245.72c-4.61.53-9.15,1-13.75.09" transform="translate(-37.66 -55.8)" style="fill:none;stroke:#ed714b;stroke-linecap:round;stroke-linejoin:round;stroke-width:1.5682px"/><path d="M308.17,250a1.11,1.11,0,0,0-.9.35c-.29.4.05,1,.42,1.29a4.4,4.4,0,0,0,3.57,1c1-.18,3.38-1.25,2.31-2.55C312.72,249,309.35,249.93,308.17,250Z" transform="translate(-37.66 -55.8)" style="fill:#ed714b;opacity:0.5"/><path d="M314.43,247.94a.64.64,0,0,0-.43.23" transform="translate(-37.66 -55.8)" style="fill:none;stroke:#ffccc4;stroke-linecap:round;stroke-miterlimit:10;stroke-width:2.2219100000000003px"/><path d="M318.37,235.52c-1.89-3.49-3.69-5.82-5.3-9.44" transform="translate(-37.66 -55.8)" style="fill:none;stroke:#ffccc4;stroke-linecap:round;stroke-miterlimit:10;stroke-width:2.2219100000000003px"/><path d="M301.43,227.74c3.54-.69,2.48-6.18-1.06-5.49s-2.48,6.18,1.06,5.49Z" transform="translate(-37.66 -55.8)" style="fill:#383849"/><path d="M321.82,228.25c3.53-.69,2.47-6.18-1.07-5.49s-2.48,6.18,1.07,5.49Z" transform="translate(-37.66 -55.8)" style="fill:#383849"/><path d="M314.57,220.64c-1.82,2.6-.26,4.77.89,7.15s3.23,5.05,3.9,6.92a4,4,0,0,1-.52,3.64c-.76,1-2.78,1.7-3.83,2.34" transform="translate(-37.66 -55.8)" style="fill:none;stroke:#ed714b;stroke-linecap:round;stroke-linejoin:round;stroke-width:1.5682px"/><path d="M325.49,217.55a8.74,8.74,0,0,0-8.12-.28" transform="translate(-37.66 -55.8)" style="fill:none;stroke:#383849;stroke-linecap:round;stroke-linejoin:round;stroke-width:2.03518px"/><path d="M307,217.2a12.64,12.64,0,0,0-13.43.79" transform="translate(-37.66 -55.8)" style="fill:none;stroke:#383849;stroke-linecap:round;stroke-linejoin:round;stroke-width:2.03518px"/><path d="M290.58,230.39l-1.64,26.91s8,8.77,23.45,5.91,14.47-31.6,14.47-31.6-2.15,2.93-7.33.61C311.78,228.76,303.22,238.75,290.58,230.39Z" transform="translate(-37.66 -55.8)" style="fill:#fff"/><path d="M292.31,255.54a81.73,81.73,0,0,1-12.49-7.31c-4.07-3.06-9-7.78-8.95-13.3a6.46,6.46,0,0,1,5.3-6.54c2.87-.53,5.66.64,8,2.15,4.05,2.57,7.44,6.13,12.34,7,.63.11.9-.85.27-1-6.48-1.11-10.29-7.27-16.51-8.92-4.61-1.22-9.36.81-10.29,5.76-.95,5.1,2.67,9.8,6.14,13.07,4.53,4.27,10.15,7.15,15.65,10,.57.29,1.08-.57.5-.87Z" transform="translate(-37.66 -55.8)" style="fill:#fff"/><path d="M301.63,240.35a43.85,43.85,0,0,0,22.08-1,.5.5,0,0,0-.27-1,42.76,42.76,0,0,1-21.54,1c-.63-.13-.9.83-.27,1Z" transform="translate(-37.66 -55.8)" style="fill:#ccc"/><path d="M300.59,247a51.89,51.89,0,0,0,22.53-.21c.63-.13.37-1.1-.26-1a50.56,50.56,0,0,1-22,.2c-.63-.14-.9.83-.27,1Z" transform="translate(-37.66 -55.8)" style="fill:#ccc"/><path d="M300.76,253.56a42.29,42.29,0,0,0,19.08.85c.63-.11.36-1.08-.27-1A41.21,41.21,0,0,1,301,252.6a.5.5,0,0,0-.27,1Z" transform="translate(-37.66 -55.8)" style="fill:#ccc"/><path d="M278.11,228.28a6.7,6.7,0,0,0-6.57-4.85c-5,.09-6.5,3.88-6.51,7.73,0,5,4.25,9.21,8.66,11a8.07,8.07,0,0,0,3.86.71,4.15,4.15,0,0,0,3.25-2" transform="translate(-37.66 -55.8)" style="fill:url(#Degradado_sin_nombre_10-16)"/><path d="M270.2,225a4,4,0,0,0-3.62,4.35" transform="translate(-37.66 -55.8)" style="fill:none;stroke:#ffdcd6;stroke-linecap:round;stroke-miterlimit:10;stroke-width:1.66643px"/><path d="M268.72,232.07a2,2,0,0,1,.78-3.07c2.75-.75,4.81,3.2,5.36,5.35-1.29-.13-1.76,1.44-1.14,2.41a3.75,3.75,0,0,0,3.08,1.47" transform="translate(-37.66 -55.8)" style="fill:none;stroke:#ff906e;stroke-linecap:round;stroke-miterlimit:10;stroke-width:1.67006px;opacity:0.5;mix-blend-mode:multiply"/><path d="M339,211.43c.38.38,1.46,1.55,2.56,2.75a2.69,2.69,0,0,0,4.48-.83l-2.29-9.18,8-3.26,8.1,8.91,2.31,20.5,30.34,66.88a12.37,12.37,0,0,1-9,15.29h0a12.37,12.37,0,0,1-14.88-8.73l-19.12-66.42-.19.06-7.69-12.56-7.08-7.35C329.94,214.13,335.42,207.76,339,211.43Z" transform="translate(-37.66 -55.8)" style="fill:url(#Degradado_sin_nombre_2-3)"/><g style="opacity:0.5;mix-blend-mode:multiply"><path d="M357.89,215.5l1.78-5.86-7.93-8.73-8,3.26,2.29,9.18a2.69,2.69,0,0,1-4.48.83c-1.1-1.2-2.18-2.37-2.56-2.75-3.54-3.67-9,2.7-4.4,6.06l7.08,7.35,7.69,12.56.19-.06,19.12,66.42a12.37,12.37,0,0,0,14.88,8.73h0a12.32,12.32,0,0,0,7.1-4.81l-31.74-75.46Z" transform="translate(-37.66 -55.8)" style="fill:url(#Degradado_sin_nombre_24-3)"/></g><polyline points="321.95 158.92 323.97 174.34 353.92 240.99" style="fill:none;stroke:#ffccc4;stroke-linecap:round;stroke-miterlimit:10;stroke-width:1.33061px;mix-blend-mode:soft-light"/><path d="M340.86,216.7c1,2.84,3.92.5,5.51-.41.23-.13.6,0,.52.33-.53,2.16,1.92,2.65,3.35,1.93a6.94,6.94,0,0,0,2.12-2,35,35,0,0,0,3.65-5.17.33.33,0,0,1,.36-.19c1.25.27,2.48.58,3.72.88l-.25-2.26-8.1-8.91-8,3.26,2.29,9.18a2.69,2.69,0,0,1-4.48.83l-.61-.66A5.4,5.4,0,0,0,340.86,216.7Z" transform="translate(-37.66 -55.8)" style="fill:#ff906e"/><path d="M351,198.13a4,4,0,0,0-.58-2.18,3.7,3.7,0,0,0-2.37-1.11,34.8,34.8,0,0,0-6.75-.6,2.76,2.76,0,0,0-1,.14,2.92,2.92,0,0,0-1,.88l-3.88,4.46a24.15,24.15,0,0,0-3.17,4.24c-.33.63-.57,1.49-.06,2a1.55,1.55,0,0,0,.64.32c2.13.57,4.32-.66,6-2.05s3.34-3.06,5.48-3.62a9,9,0,0,1,5.21.51c.82.29,1.39.84,1.72,0C351.48,200.46,351.06,198.86,351,198.13Z" transform="translate(-37.66 -55.8)" style="fill:url(#Degradado_sin_nombre_10-17)"/><path d="M354.83,200.12A3.85,3.85,0,0,0,354,198a3.7,3.7,0,0,0-2.48-.83,35.61,35.61,0,0,0-6.77.2,3,3,0,0,0-1,.26,2.91,2.91,0,0,0-.94,1l-3.33,4.89a23.77,23.77,0,0,0-2.64,4.58c-.26.66-.4,1.54.17,2a1.41,1.41,0,0,0,.67.23c2.18.32,4.21-1.15,5.75-2.74s3-3.44,5-4.24a9,9,0,0,1,5.24-.11c.85.19,1.47.68,1.71-.17C355.58,202.38,355,200.83,354.83,200.12Z" transform="translate(-37.66 -55.8)" style="fill:url(#Degradado_sin_nombre_10-18)"/><path d="M357,202.73a3.85,3.85,0,0,0-1.31-1.84,3.67,3.67,0,0,0-2.6-.23,35.88,35.88,0,0,0-6.54,1.76,2.18,2.18,0,0,0-1.6,1.67l-2.1,5.53a23.83,23.83,0,0,0-1.51,5.07c-.1.7,0,1.59.62,1.87a1.42,1.42,0,0,0,.71.08c2.2-.2,3.83-2.1,5-4s2.08-4,3.89-5.29a9,9,0,0,1,5.07-1.32c.87,0,1.59.32,1.63-.56C358.23,204.76,357.28,203.4,357,202.73Z" transform="translate(-37.66 -55.8)" style="fill:url(#Degradado_sin_nombre_10-19)"/><path d="M356,211.26l-3.27,3.62a8.33,8.33,0,0,1-1.88,1.68,2.7,2.7,0,0,1-2.43.23,1.24,1.24,0,0,1-.57-.49,1.63,1.63,0,0,1-.13-.76c.06-1.92,1.2-3.85,2.19-5.45a15.28,15.28,0,0,1,3.86-4.23,3.52,3.52,0,0,1,4.91.54c1.48,1.7,1.41,4.55,1.54,6.67" transform="translate(-37.66 -55.8)" style="fill:url(#Degradado_sin_nombre_10-20)"/><path d="M355.49,213.27a2.35,2.35,0,0,1,1.26,1" transform="translate(-37.66 -55.8)" style="fill:none;stroke:#ff906e;stroke-linecap:round;stroke-miterlimit:10;stroke-width:1.9170300000000002px"/><path d="M333.41,203.61s4.66-5.65,6.86-8.37a1.08,1.08,0,0,1,.93-.4l6.51.7" transform="translate(-37.66 -55.8)" style="fill:none;stroke:#ffccc4;stroke-linecap:round;stroke-miterlimit:10;stroke-width:1.33061px;mix-blend-mode:soft-light"/><path d="M338,207.45l5.2-8.38a1.76,1.76,0,0,1,1.42-.84l7.09-.37" transform="translate(-37.66 -55.8)" style="fill:none;stroke:#ffccc4;stroke-linecap:round;stroke-miterlimit:10;stroke-width:1.33061px;mix-blend-mode:soft-light"/><path d="M344.3,207.5l1.69-3.8a1.8,1.8,0,0,1,1.23-1l7.62-1.38" transform="translate(-37.66 -55.8)" style="fill:none;stroke:#ffccc4;stroke-linecap:round;stroke-miterlimit:10;stroke-width:1.33061px;mix-blend-mode:soft-light"/><path d="M349.08,212.86c.74-2,3.31-4.83,4.39-6a1.55,1.55,0,0,1,1.17-.48l3.33.08" transform="translate(-37.66 -55.8)" style="fill:none;stroke:#ffccc4;stroke-linecap:round;stroke-miterlimit:10;stroke-width:1.33061px;mix-blend-mode:soft-light"/><path d="M371.8,240.91l-2.24-5.48c-.31-.75-.69-1.58-1.39-1.8a2.16,2.16,0,0,0-1.32.16l-9.31,3.15c-4.23,1.43-14.18,3.28-13.35,9.13.4,2.85,2.64,7,3.57,9.91q2,6.09,4.1,12.1,4.93,13.95,10.6,27.55c2.9,7,5,14.78,9.05,21.23,5.3,8.49,11.18,9.07,19.1,5.14s8.29-13.65,5.17-21.8C388.15,280.24,379.88,260.61,371.8,240.91Z" transform="translate(-37.66 -55.8)" style="fill:#693266"/><path d="M357.54,236.94l9.31-3.15a2.16,2.16,0,0,1,1.32-.16c.7.22,1.08,1.05,1.39,1.8s.69,1.69,1,2.53c-7.25,2-16.59,3.57-22.6,8.31a1,1,0,0,0-.29.32.92.92,0,0,0,0,.67c4.82,15.19,11.22,30,17,44.82l11.57,29.79-.52.06a20.17,20.17,0,0,1-4.28-5.07c-4-6.45-6.15-14.22-9.05-21.23q-5.64-13.61-10.6-27.55-2.13-6-4.1-12.1c-.93-2.89-3.17-7.06-3.57-9.91C343.36,240.22,353.31,238.37,357.54,236.94Z" transform="translate(-37.66 -55.8)" style="fill:#773974"/><path d="M362.16,295.15a60.62,60.62,0,0,0,9.61,22.78" transform="translate(-37.66 -55.8)" style="fill:none;stroke:#1f1f49;stroke-linecap:round;stroke-linejoin:round;stroke-width:1.66311px"/><path d="M362.2,293.8a44.27,44.27,0,0,0,14.36,18.32" transform="translate(-37.66 -55.8)" style="fill:none;stroke:#1f1f49;stroke-linecap:round;stroke-linejoin:round;stroke-width:1.66311px"/><path d="M324,192.66l11.08,58s-20.46,17.55-51.31,3.92l-1.88-58.81a145,145,0,0,0,24.89.85A56.6,56.6,0,0,0,324,192.66Z" transform="translate(-37.66 -55.8)" style="fill:#fff;fill-opacity:0.1;stroke:#fff;stroke-miterlimit:10;stroke-width:0.555478px"/><path d="M282.33,195.79c1.14.13,4.25.48,8.31.73,1,1,2.07,2.08,3.11,3.11l39,39,1.79,9.37Z" transform="translate(-37.66 -55.8)" style="fill:url(#Degradado_sin_nombre_33)"/><path d="M322.46,243.52l-40.38-40.38-.11-3.43,10.51,10.51q20.65,20.67,41.33,41.33c-.52.36-1.19.82-2,1.32Z" transform="translate(-37.66 -55.8)" style="fill:url(#Degradado_sin_nombre_33-2)"/><path d="M325.39,191.3c-17.61,6-41.24,6.82-58.55-.76-1.94-.85-3.64,2-1.68,2.88,18.18,8,42.55,7.38,61.12,1.09,2-.68,1.15-3.9-.89-3.21Z" transform="translate(-37.66 -55.8)" style="fill:#ff2c40"/><polygon points="208.98 222.46 192.27 249.78 179.58 325.06 177.65 381.62 208.4 387.42 209.04 327.64 224.74 256.45 218.37 230.47 208.98 222.46" style="fill:#693266"/><polygon points="195.92 251.34 211.79 224.74 218.37 230.47 203.6 253.99 191.42 324.42 189.88 383.93 183.01 382.63 184 322.83 195.92 251.34" style="fill:#773974"/><polygon points="179.58 325.06 192.27 249.78 208.98 222.46 212.22 224.78 195.92 251.34 184 322.83 183.01 382.63 177.65 381.62 179.58 325.06" style="fill:#8e438a"/><polyline points="211.83 224.6 195.92 251.34 184 322.83 182.91 382.25" style="fill:none;stroke:#ff2c40;stroke-linecap:round;stroke-miterlimit:10;stroke-width:0.741791px"/><path d="M265.17,299.33C259.71,323.12,250.83,359,246.44,383" transform="translate(-37.66 -55.8)" style="fill:none;stroke:#1f1f49;stroke-linecap:round;stroke-linejoin:round;stroke-width:1.66311px"/><path d="M267.88,302.34l-4.53,5.74" transform="translate(-37.66 -55.8)" style="fill:none;stroke:#1f1f49;stroke-linecap:round;stroke-linejoin:round;stroke-width:1.66311px"/><path d="M131.12,264.43l-15.57,65.45c-.71,7.69,4.51,14.33,11.54,14.52h0c6.76.19,12.48-5.68,12.9-13.08l4.46-66.25Z" transform="translate(-37.66 -55.8)" style="fill:url(#Degradado_sin_nombre_438)"/><g style="opacity:0.5;mix-blend-mode:multiply"><path d="M134.65,264.6l-15.47,76.22a11.27,11.27,0,0,0,7.91,3.58h0c6.76.19,12.48-5.68,12.9-13.08l4.46-66.25Z" transform="translate(-37.66 -55.8)" style="fill:url(#Degradado_sin_nombre_437)"/></g><path d="M131.32,265.23c-4.37,20.13-9.54,41-14.95,64" transform="translate(-37.66 -55.8)" style="fill:none;stroke:#cf9a96;stroke-linecap:round;stroke-miterlimit:10;stroke-width:1.34308px;mix-blend-mode:soft-light"/><path d="M123.15,291.93l22.28,1.58-1.25-18.92v0l5.89-15.24,6.27-9.44c4.37-4.59-2.88-10.45-6-5.74-.33.49-1.28,2-2.24,3.51a3,3,0,0,1-5.06,0l.67-10.48-9.42-2-7.06,11.34,1.57,22.83Z" transform="translate(-37.66 -55.8)" style="fill:url(#Degradado_sin_nombre_907)"/><g style="opacity:0.5;mix-blend-mode:multiply"><path d="M132.72,270.86,128,292.28l17.44,1.23-1.25-18.92v0l5.89-15.24,6.27-9.44c4.37-4.59-2.88-10.45-6-5.74-.33.49-1.28,2-2.24,3.51a3,3,0,0,1-5.06,0l.67-10.48-9.42-2-6.91,11.1,3.11,6Z" transform="translate(-37.66 -55.8)" style="fill:url(#Degradado_sin_nombre_906)"/></g><path d="M132.73,287a2.2,2.2,0,0,0-1.62-2.3c-2.31-.55-4.39,2.77-5.4,4.37a15,15,0,0,0-2.32,7.24c-.13,2.55,1.5,4.09,3.89,4.57a11.5,11.5,0,0,0,1.85.2c.9,0,.93.1,1.07-.72.31-1.83,0-3.82.3-5.69C130.93,292,132.84,289.69,132.73,287Z" transform="translate(-37.66 -55.8)" style="fill:url(#Degradado_sin_nombre_903)"/><path d="M128.44,251.9c.23,6.26,1.22,17.73,1.22,17.73l-5.21,21.29" transform="translate(-37.66 -55.8)" style="fill:none;stroke:#e3c6ff;stroke-linecap:round;stroke-miterlimit:10;stroke-width:1.47659px;mix-blend-mode:soft-light"/><path d="M149.3,250.32c-.57,3.31-4.18,1.33-6.09.65-.28-.1-.65.14-.51.46,1,2.26-1.56,3.29-3.27,2.78a7.88,7.88,0,0,1-2.72-1.75,38.18,38.18,0,0,1-5-4.92.37.37,0,0,0-.43-.13c-1.3.55-2.59,1.13-3.88,1.7l-.18-2.51,7.06-11.34,9.42,2L143,247.69a3,3,0,0,0,5.06,0l.53-.84A6,6,0,0,1,149.3,250.32Z" transform="translate(-37.66 -55.8)" style="fill:#a355f2"/><path d="M134.51,232.08a4.36,4.36,0,0,1,.21-2.51,4.16,4.16,0,0,1,2.36-1.68,40.34,40.34,0,0,1,7.25-2,3.38,3.38,0,0,1,1.14,0,3.17,3.17,0,0,1,1.32.75l5.13,4.1a25.89,25.89,0,0,1,4.3,4c.49.62.92,1.5.46,2.14a1.74,1.74,0,0,1-.63.47c-2.22,1-4.85.15-7-1s-4.26-2.68-6.7-2.86a10,10,0,0,0-5.59,1.59c-.83.48-1.34,1.2-1.87.38C134.46,234.72,134.6,232.88,134.51,232.08Z" transform="translate(-37.66 -55.8)" style="fill:url(#Degradado_sin_nombre_904)"/><path d="M130.74,235a4.29,4.29,0,0,1,.5-2.46,4.15,4.15,0,0,1,2.54-1.4,39.69,39.69,0,0,1,7.44-1.13,3.13,3.13,0,0,1,1.14.08,3.34,3.34,0,0,1,1.22.9l4.61,4.68a25.69,25.69,0,0,1,3.8,4.47c.41.67.74,1.61.2,2.18a1.5,1.5,0,0,1-.68.39c-2.32.78-4.83-.42-6.82-1.84s-3.92-3.16-6.32-3.63a10,10,0,0,0-5.74.92c-.89.38-1.48,1-1.9.16C130.38,237.62,130.74,235.81,130.74,235Z" transform="translate(-37.66 -55.8)" style="fill:url(#Degradado_sin_nombre_904-2)"/><path d="M128.91,238.29A4.38,4.38,0,0,1,130,236a4.12,4.12,0,0,1,2.8-.77,39.35,39.35,0,0,1,7.5.62,3.24,3.24,0,0,1,1.09.35,3.32,3.32,0,0,1,1,1.15q1.69,2.82,3.4,5.62a26,26,0,0,1,2.65,5.24c.25.74.35,1.73-.3,2.16a1.52,1.52,0,0,1-.75.22c-2.44.23-4.61-1.53-6.22-3.37s-3.07-4-5.3-5a10,10,0,0,0-5.8-.43c-.95.16-1.67.66-1.89-.29C128,240.75,128.72,239.08,128.91,238.29Z" transform="translate(-37.66 -55.8)" style="fill:url(#Degradado_sin_nombre_904-3)"/><path d="M131.68,247.41,136,250.7a8.77,8.77,0,0,0,2.39,1.46,3,3,0,0,0,2.7-.23,1.33,1.33,0,0,0,.52-.65,1.64,1.64,0,0,0,0-.85c-.44-2.08-2.07-4-3.47-5.52a17.13,17.13,0,0,0-5.06-3.84,3.88,3.88,0,0,0-5.25,1.57c-1.27,2.14-.63,5.24-.35,7.58" transform="translate(-37.66 -55.8)" style="fill:url(#Degradado_sin_nombre_904-4)"/><path d="M132.64,249.5a2.62,2.62,0,0,0-1.18,1.3" transform="translate(-37.66 -55.8)" style="fill:none;stroke:#a355f2;stroke-linecap:round;stroke-miterlimit:10;stroke-width:2.1273400000000002px"/><path d="M154.82,234.55s-6.21-5.24-9.16-7.77a1.23,1.23,0,0,0-1.09-.26l-7,2.07" transform="translate(-37.66 -55.8)" style="fill:none;stroke:#e3c6ff;stroke-linecap:round;stroke-miterlimit:10;stroke-width:1.47659px;mix-blend-mode:soft-light"/><path d="M150.6,239.65l-7.35-8.11a2,2,0,0,0-1.72-.64l-7.81,1" transform="translate(-37.66 -55.8)" style="fill:none;stroke:#e3c6ff;stroke-linecap:round;stroke-miterlimit:10;stroke-width:1.47659px;mix-blend-mode:soft-light"/><path d="M143.7,241l-2.6-3.81a2,2,0,0,0-1.54-.85H131" transform="translate(-37.66 -55.8)" style="fill:none;stroke:#e3c6ff;stroke-linecap:round;stroke-miterlimit:10;stroke-width:1.47659px;mix-blend-mode:soft-light"/><path d="M139.56,247.77c-1.21-2-4.57-4.61-6-5.64a1.7,1.7,0,0,0-1.38-.29l-3.62.75" transform="translate(-37.66 -55.8)" style="fill:none;stroke:#e3c6ff;stroke-linecap:round;stroke-miterlimit:10;stroke-width:1.47659px;mix-blend-mode:soft-light"/><path d="M145.12,312.18c5-4.32-4.24-6-6.59-6.09l-11.94-.29c-3.81-.09-18.15,2.78-10.4,9.53-.91,4.48-1.81,9-1.49,13.6s2,9.23,5.53,12.16c3.73,3.12,8.86,3.86,13.71,4.25,23.77,1.94,63.62,2.63,76.4-22.47,3-5.83,2.41-14-2.92-17.75-4.52-3.19-10.64-2.34-16.08-1.35Z" transform="translate(-37.66 -55.8)" style="fill:#ea7570"/><path d="M121.39,306.55a.36.36,0,0,1,.18,0l.38.06h.11a.42.42,0,0,1,.12,0c6.3,1.05,13.12,1.31,18.75,4.59a.35.35,0,0,1-.07.62,15.75,15.75,0,0,0-6.61,5.13,21.24,21.24,0,0,1,9.33-3.81.35.35,0,0,1,.3.51A45.85,45.85,0,0,0,139,324a21.33,21.33,0,0,1,11.55-7.92c5.31-1.43,11-1.56,16.39-2.26,8.12-1.06,16.21-2.39,24.29-3.8,6-1.05,12-2.14,18-3.2a10.59,10.59,0,0,0-1.87-1.72c-4.52-3.19-10.64-2.34-16.08-1.35l-46.22,8.41c5-4.32-4.24-6-6.59-6.09l-11.94-.29a23.4,23.4,0,0,0-5.34.74Z" transform="translate(-37.66 -55.8)" style="fill:#ff9692"/><path d="M207.42,305.12c-3.81-2.69-8.76-2.51-13.48-1.79a41.07,41.07,0,0,0-4.84,6.27,76.77,76.77,0,0,1-5.78,7.17c-4,4.55-8.38,8.84-12.66,13.16s-8.65,9.13-13,13.66l-2.5,2.58c21.58-.3,45.76-4.77,55.19-23.3C213.31,317,212.75,308.9,207.42,305.12Z" transform="translate(-37.66 -55.8)" style="fill:#e4534e"/><path d="M139.76,318.79a19.37,19.37,0,0,1,6.71-7.38" transform="translate(-37.66 -55.8)" style="fill:none;stroke:#c24262;stroke-linecap:round;stroke-linejoin:round;stroke-width:1.6786900000000002px"/><path d="M136.72,313.85a18.4,18.4,0,0,1,9.71-3.78" transform="translate(-37.66 -55.8)" style="fill:none;stroke:#c24262;stroke-linecap:round;stroke-linejoin:round;stroke-width:1.6786900000000002px"/><path d="M171.76,397.67a93.79,93.79,0,0,1-2.12,29.44l-7.77,33.15a46.92,46.92,0,0,0,11.57,5.19c16.18,4.92,34.33,4.25,50.92,1.72a147.68,147.68,0,0,0,24.11-5.66c2.39-.78,4.77-1.64,7.11-2.6l-7.23-33.35a93.69,93.69,0,0,1-1.85-27.18c1.46-18.56,4-51.41,4.9-68.75a31.34,31.34,0,0,0-12.13-26.28c-5.58-4.42-11.56-8.4-14.84-8.23-6.1.32-14.81,2.64-22.31,5a36.63,36.63,0,0,0-21.84,18.31l-9,18a33,33,0,0,0-3.38,18.08C168.81,363.67,170.56,383.72,171.76,397.67Z" transform="translate(-37.66 -55.8)" style="fill:#ff9692"/><path d="M171.76,397.67a93.79,93.79,0,0,1-2.12,29.44l-7.77,33.15a46.92,46.92,0,0,0,11.57,5.19c16.18,4.92,34.33,4.25,50.92,1.72q4.59-.71,9.14-1.65c-.39-4.95-.76-9.9-1.14-14.85-.72-9.44-1.69-18.87-2.34-28.32-.63-9,.54-18.12,1.66-27.07,2.33-18.77,4.54-37.57,5.63-56.45.27-4.72.49-9.44.59-14.17a18.34,18.34,0,0,0-2.31-9.64c-3.22-5.64-9.49-9.39-16.11-10.64a61.59,61.59,0,0,0-19.26-.11,47.84,47.84,0,0,0-10.15,2.23,35.66,35.66,0,0,0-9.79,11.95l-9,18a33,33,0,0,0-3.38,18.08C168.81,363.67,170.56,383.72,171.76,397.67Z" transform="translate(-37.66 -55.8)" style="fill:#ea635e"/><path d="M168.63,431.39c7.06-8.5,13.93-17.15,21-25.63,8.12-9.69,16.21-19.42,23.86-29.45,6.54-8.56,12.95-17.32,18.77-26.32,5.5-8.52,10.92-18,11.89-28.05-3.64,1.41-6.08,4.38-9,6.78s-5.89,4.6-9,6.71c-17.71,12.09-38,20-57.36,29.46.9,10,2,22.9,2.88,32.78a93.79,93.79,0,0,1-2.12,29.44Z" transform="translate(-37.66 -55.8)" style="fill:#d14f65"/><path d="M191.11,315.41a35,35,0,0,0,17.66-1.86" transform="translate(-37.66 -55.8)" style="fill:none;stroke:#c24262;stroke-linecap:round;stroke-linejoin:round;stroke-width:1.7365300000000001px"/><path d="M168.41,342.41a143.45,143.45,0,0,1,17.36-31.93" transform="translate(-37.66 -55.8)" style="fill:none;stroke:#c24262;stroke-linecap:round;stroke-linejoin:round;stroke-width:1.7365300000000001px"/><path d="M178.78,414.41c15.81-4.36,29.6-14.75,37.49-28.26" transform="translate(-37.66 -55.8)" style="fill:none;stroke:#c24262;stroke-linecap:round;stroke-linejoin:round;stroke-width:1.7365300000000001px"/><path d="M182,427.43a93.18,93.18,0,0,0,26.17-4.67" transform="translate(-37.66 -55.8)" style="fill:none;stroke:#c24262;stroke-linecap:round;stroke-linejoin:round;stroke-width:1.7365300000000001px"/><path d="M130,308.9l31,59.71c2.56,7.29-.89,15-7.67,16.89h0c-6.51,1.82-13.48-2.48-15.68-9.56l-20.41-63.19Z" transform="translate(-37.66 -55.8)" style="fill:url(#Degradado_sin_nombre_438-2)"/><g style="opacity:0.5;mix-blend-mode:multiply"><path d="M126.61,309.92l33.5,70.18a11.22,11.22,0,0,1-6.8,5.4h0c-6.51,1.82-13.48-2.48-15.68-9.56l-20.41-63.19Z" transform="translate(-37.66 -55.8)" style="fill:url(#Degradado_sin_nombre_437-2)"/></g><path d="M130,309.73c9.12,18.46,19.19,37.44,30,58.46" transform="translate(-37.66 -55.8)" style="fill:none;stroke:#cf9a96;stroke-linecap:round;stroke-miterlimit:10;stroke-width:1.34308px;mix-blend-mode:soft-light"/><path d="M108.58,291.6c-.41-.5-.8-1-1.19-1.55a1,1,0,0,1-.26-.94,1,1,0,0,1,.4-.37,86.11,86.11,0,0,1,8.22-4.63,2.54,2.54,0,0,1,.74-.27,2.49,2.49,0,0,1,1,.14c3.57,1,4.2,1,7.77,2,.43.12,1,.36.94.81a1,1,0,0,1-.18.46c-1.14,1.79-3.47,2.48-5.58,2.38s-1.2-.15-3.27-.63a1,1,0,0,0-1.23.39c-1,1.11-3.36,4.65-5.18,4.26a2.26,2.26,0,0,1-1.14-.82C109.25,292.41,108.91,292,108.58,291.6Z" transform="translate(-37.66 -55.8)" style="fill:url(#Degradado_sin_nombre_905)"/><path d="M111.26,293.24c-.87.18-1.74.35-2.62.49-.46.07-1,.1-1.31-.27a1.37,1.37,0,0,1-.21-.7,115.42,115.42,0,0,1-.57-12.88,3.39,3.39,0,0,1,.13-1.06,3.22,3.22,0,0,1,.77-1.1c3.43-3.73,3.76-4.52,7.18-8.25.41-.45,1-.94,1.57-.65a1.36,1.36,0,0,1,.45.5c1.47,2.5.89,5.76-.54,8.27s-.93,1.37-2.78,3.6a1.85,1.85,0,0,0-.45.76,1.82,1.82,0,0,0,.17,1c.7,2,3.59,7,2,8.94a3.13,3.13,0,0,1-1.71.88C112.65,292.92,112,293.09,111.26,293.24Z" transform="translate(-37.66 -55.8)" style="fill:url(#Degradado_sin_nombre_904-5)"/><path d="M108.65,294.67a7.59,7.59,0,0,1-1.06-.31,1.12,1.12,0,0,1-.64-.43,1.14,1.14,0,0,1-.11-.58,45.13,45.13,0,0,1,.23-6.26,28.66,28.66,0,0,1,.88-5.55,3.08,3.08,0,0,1,.5-1.05,3.21,3.21,0,0,1,1.29-.84c2-.91,6.71-4.12,8.75-5a26.44,26.44,0,0,1,5.63-2,2.06,2.06,0,0,1,2.33.76c.55.92-.07,1.94-.68,2.68-2.49,3-8.75,7-12.34,8.51-.18,2-.37,4-.55,6,0,.47.24,3.78-.24,3.93A7.93,7.93,0,0,1,108.65,294.67Z" transform="translate(-37.66 -55.8)" style="fill:url(#Degradado_sin_nombre_904-6)"/><path d="M132.07,310.19l-1.75-14.82a32.92,32.92,0,0,1-3.12-1.48,15.67,15.67,0,0,1-2.36-1.63,4.84,4.84,0,0,1-5.66-2.19,6.63,6.63,0,0,1,.08-6.32,11.16,11.16,0,0,0-4-1.15c-.67-.05-3.52.17-3.85.83l-4.08,8.06a3.64,3.64,0,0,0,0,3.31l9.09,17.88,5.29,22L141.67,326Z" transform="translate(-37.66 -55.8)" style="fill:url(#Degradado_sin_nombre_903-2)"/><path d="M108.51,295.16c3,5.29,8.77,17.29,8.77,17.29l5.11,20.73" transform="translate(-37.66 -55.8)" style="fill:none;stroke:#e3c6ff;stroke-linecap:round;stroke-miterlimit:10;stroke-width:1.43849px;mix-blend-mode:soft-light"/><path d="M110.6,291.88a4.42,4.42,0,0,1-1.6-2,4.19,4.19,0,0,1,.57-2.9,40.51,40.51,0,0,1,4-6.56,3.41,3.41,0,0,1,.81-.84,3.46,3.46,0,0,1,1.5-.37l6.66-.56a26.58,26.58,0,0,1,6-.06c.8.11,1.74.46,1.84,1.25a1.54,1.54,0,0,1-.14.79c-.9,2.33-3.47,3.51-5.89,4.15s-5,1-7,2.58a10.1,10.1,0,0,0-3,5.1c-.28.94-.15,1.82-1.11,1.59C112.42,293.87,111.23,292.41,110.6,291.88Z" transform="translate(-37.66 -55.8)" style="fill:url(#Degradado_sin_nombre_904-7)"/><path d="M196.49,311.26c3.44,3.09,21.27-2.07,26.85-4.67,1.44-.66,11.38-5.77,11.36-8,0-.32,0-.65,0-1-.77-10.35-1.55-19.75.46-29.92.14-.73.3-1.47.48-2.21.62-2.64,1.37-5.44.6-8-1.85-6.16-13.79-3.55-17.91-2-6,2.19-11.83,7-12.1,14.57-.5,14-3.55,28.64-10,41A3.5,3.5,0,0,0,196.49,311.26Z" transform="translate(-37.66 -55.8)" style="fill:url(#Degradado_sin_nombre_5)"/><path d="M211.26,296a49,49,0,0,0,22.68-18.27,67.06,67.06,0,0,1,1.18-10.09c.14-.73.3-1.47.48-2.21.62-2.64,1.37-5.44.6-8-1.85-6.16-13.79-3.55-17.91-2-6,2.19-11.83,7-12.1,14.57a105,105,0,0,1-5.53,30.63C204.16,299,207.74,297.59,211.26,296Z" transform="translate(-37.66 -55.8)" style="fill:#8d483c"/><path d="M244.88,245.32c-.35,20.21-13.76,40.45-33,45.3a36.81,36.81,0,0,1-8.53,1.1,12.82,12.82,0,0,1-4.28-.61,13.14,13.14,0,0,1-6.8-5.87c-4-6.69-5.05-15-5-23.1a90.58,90.58,0,0,1,4.25-28.07,31.62,31.62,0,0,1,14.07-16.81,25.73,25.73,0,0,1,27.33,1C241.7,224.17,245.06,234.7,244.88,245.32Z" transform="translate(-37.66 -55.8)" style="fill:url(#Degradado_sin_nombre_5-2)"/><path d="M220.05,214c-1.48.06-3-.15-4.5,0a25.1,25.1,0,0,0-9.91,3.29,33.73,33.73,0,0,0-7.13,5.61c-.55,1-2,1.69-2.51,2.71-5.62,12.34-7.81,25.68-7.9,39.24a56.21,56.21,0,0,0,3.07,18.29c.35.72.72,1.44,1.14,2.13a13.14,13.14,0,0,0,6.8,5.87,12.82,12.82,0,0,0,4.28.61,36.81,36.81,0,0,0,8.53-1.1,38.06,38.06,0,0,0,3.67-1.14c2.51-.93,2.88-10.89,3.21-13q1.33-8.36,2.68-16.7a118.64,118.64,0,0,1,3.82-17.93c1.5-4.64,3.57-9.13,4.36-14a20,20,0,0,0-.12-7.36,10.29,10.29,0,0,0-.69-.94A17.19,17.19,0,0,0,220.05,214Z" transform="translate(-37.66 -55.8)" style="fill:#a45b50"/><path d="M191.74,243.46c4.13-5.47,8.29-11.09,10.16-17.79.08-.31.54-.21.54.1a39.3,39.3,0,0,0,3.37,15.12c3.39,8,9.18,15.95,17.63,19,6.47,2.36,13.26,1.36,19.36-1.33a49.84,49.84,0,0,0,2.08-13.26c.18-10.62-3.18-21.15-11.91-27a25.73,25.73,0,0,0-27.33-1,31.62,31.62,0,0,0-14.07,16.81,80.7,80.7,0,0,0-3.15,13.32A38.08,38.08,0,0,0,191.74,243.46Z" transform="translate(-37.66 -55.8)" style="fill:#8d483c;opacity:0.5;mix-blend-mode:multiply"/><path d="M238.53,215.7c-15.26-13-39.13-5.53-47.49,12.58a33.91,33.91,0,0,0-2.55,8c-.34,5.13-.48,6.91-.09,10.7,6-7.71,10.15-15.93,13.81-24.59-.27.62.4,2.72.54,3.43a45.43,45.43,0,0,0,18,27.87c.73.51,1.47,1,2.22,1.46,1.87,1.14,7.87,4.15,7.87,4.15a36.08,36.08,0,0,0-1,6,13.29,13.29,0,0,1,6.33-5.08c-.58,2.31-1.76,4.49-2.54,6.77a73.48,73.48,0,0,0-2.35,8.85c-.61,2.95-2.55,5.44-3.46,8.37-.84,2.7-1.5,7.52.68,9.8,3.51,3.7,8.25-1.25,10.23-4.15C252.78,269.33,259.92,233.9,238.53,215.7Z" transform="translate(-37.66 -55.8)" style="fill:#383849"/><path d="M238.53,215.7C226.44,205.41,209,208,198,218.48a53.29,53.29,0,0,0,6.48-3.41.29.29,0,0,1,.41.19A38.38,38.38,0,0,0,210,225.53c7.87,11.42,21.45,20.85,35.6,21.49a.28.28,0,0,1,.24.15,35.94,35.94,0,0,1,2.85,15.08c-.31,8.87-4,17.19-8.67,24.62-1.39,2.24-2.87,4.41-4.41,6.55a18.41,18.41,0,0,0,3.14-3.53C252.78,269.33,259.92,233.9,238.53,215.7Z" transform="translate(-37.66 -55.8)" style="fill:#434357"/><path d="M227.35,307.13c1.71-2.62,3.38-5.25,4.86-8,1.17-2.15,2.18-4.91.79-6.93-3.89-5.65-12.56,6.14-14.56,8.88a66.94,66.94,0,0,0-9.61,19.3,63.3,63.3,0,0,0-2,8.13c-.41,2.4-1.75,5.33-1.6,7.72a3.43,3.43,0,0,0,2.69,3.32,3.36,3.36,0,0,0,2.75-1.19,9.89,9.89,0,0,0,1.59-2.67L217.23,325c.68-1.47,1.29-3,2-4.45.5-1.06,2.39-3.26,2.39-4.38C223.41,313.09,225.4,310.12,227.35,307.13Z" transform="translate(-37.66 -55.8)" style="fill:#383849"/><path d="M206.13,343.73a4.39,4.39,0,0,0,1.39-2.47c.66-2.34,1.18-4.73,1.82-7.07a82.15,82.15,0,0,1,5.52-13.92,39.36,39.36,0,0,1,4-6.59c1.55-2.06,3.28-4,4.82-6,1.93-2.57,4.14-5,5.63-7.89.79-1.5,1.63-3.51.62-5.1a4.68,4.68,0,0,0-3.9-2,46.28,46.28,0,0,0-7.56,8.41,66.94,66.94,0,0,0-9.61,19.3A62.37,62.37,0,0,0,206,340.45C206,341,206,342.23,206.13,343.73Z" transform="translate(-37.66 -55.8)" style="fill:#434357"/><path d="M231.9,297l-4.69-2.21a2.92,2.92,0,0,1-1.38-3.89h0a2.91,2.91,0,0,1,3.88-1.39l4.68,2.22a2.92,2.92,0,0,1,1.39,3.89h0A2.92,2.92,0,0,1,231.9,297Z" transform="translate(-37.66 -55.8)" style="fill:#ff2c40"/><path d="M232.34,264.24a12.06,12.06,0,0,1,7.37-6c3.84-.95,7,2.71,6.65,6.51-.4,4-4.66,8.8-7.64,11.18a8.14,8.14,0,0,1-4.17,2,3.69,3.69,0,0,1-3.82-2.09" transform="translate(-37.66 -55.8)" style="fill:url(#Degradado_sin_nombre_5-3)"/><path d="M242.7,266.37a2,2,0,0,0-.81-3.08c-2.76-.72-4.79,3.26-5.33,5.42,1.3-.13,1.78,1.44,1.17,2.41a3.77,3.77,0,0,1-3.08,1.51" transform="translate(-37.66 -55.8)" style="fill:none;stroke:#8d483c;stroke-linecap:round;stroke-miterlimit:10;stroke-width:1.8339600000000003px;opacity:0.5;mix-blend-mode:multiply"/><path d="M210.68,268.67l-2.08-2.25a2,2,0,0,1,1.52-3.29l4.32.17a2,2,0,0,1,1.25,3.4l-2.24,2.07A2,2,0,0,1,210.68,268.67Z" transform="translate(-37.66 -55.8)" style="fill:url(#Degradado_sin_nombre_5-4)"/><path d="M190.65,266.44l-1.9-2.4a2,2,0,0,1,1.77-3.17l4.3.51a2,2,0,0,1,1,3.49l-2.4,1.89A2,2,0,0,1,190.65,266.44Z" transform="translate(-37.66 -55.8)" style="fill:url(#Degradado_sin_nombre_5-5)"/><path d="M215.17,258.66a2.63,2.63,0,1,1-2.11-3.06A2.62,2.62,0,0,1,215.17,258.66Z" transform="translate(-37.66 -55.8)" style="fill:#383849"/><path d="M196.08,256.43a2.63,2.63,0,1,1-2.12-3.06A2.63,2.63,0,0,1,196.08,256.43Z" transform="translate(-37.66 -55.8)" style="fill:#383849"/><line x1="164.02" y1="202.1" x2="159.35" y2="210.67" style="fill:none;stroke:#cf9a96;stroke-linecap:round;stroke-miterlimit:10;stroke-width:2.2349200000000002px;opacity:0.5"/><path d="M190,245.75a8.65,8.65,0,0,1,7.86,1.7" transform="translate(-37.66 -55.8)" style="fill:none;stroke:#383849;stroke-linecap:round;stroke-linejoin:round;stroke-width:2.13862px"/><path d="M208.51,248.22a12.5,12.5,0,0,1,13.18,1.93" transform="translate(-37.66 -55.8)" style="fill:none;stroke:#383849;stroke-linecap:round;stroke-linejoin:round;stroke-width:2.13862px"/><path d="M195.33,275.5a24.2,24.2,0,0,0,8.43,1.76" transform="translate(-37.66 -55.8)" style="fill:none;stroke:#7d413b;stroke-linecap:round;stroke-miterlimit:10;stroke-width:1.8339600000000003px"/><path d="M200.42,279a2.35,2.35,0,0,0,1.41.2" transform="translate(-37.66 -55.8)" style="fill:none;stroke:#cf9a96;stroke-linecap:round;stroke-miterlimit:10;stroke-width:2.2349200000000002px;opacity:0.5"/><path d="M200.38,251.06c1.33,2.31.3,5-.86,7.05q-2.27,4.06-4.32,8.25a.52.52,0,0,0-.08.36.48.48,0,0,0,.2.27l2.82,2.47" transform="translate(-37.66 -55.8)" style="fill:none;stroke:#7d413b;stroke-linecap:round;stroke-miterlimit:10;stroke-width:1.8339600000000003px"/><path d="M159.32,358.73c3-5.94-6.25-3.9-8.44-3l-11.11,4.4c-3.54,1.4-15.63,9.62-5.87,12.82.92,4.48,1.86,9,3.93,13.11s5.45,7.71,9.83,9c4.65,1.43,9.67.1,14.29-1.42,22.64-7.47,81.38-41.42,83.37-69.52.46-6.52-3.22-13.8-9.61-15.2-5.4-1.19-10.71,2-15.33,5C207.28,322.52,172.42,350.15,159.32,358.73Z" transform="translate(-37.66 -55.8)" style="fill:#ff9692"/><path d="M241.06,335c1.44-4.81,1.54-13.09-3-16.38-5.59-4-11.9.72-16.53,3.92q-15,10.37-30,20.86c-7.9,5.56-15.8,11.14-23.57,16.88-2.58,1.9-5.05,4.16-7.76,5.87a29.54,29.54,0,0,0-6.91,5.67c-1.33,1.52-5.2,5.67-5,7.81a19.06,19.06,0,0,1,5.12-14.24A35.43,35.43,0,0,0,143,372.75c1.26-4.1,4-6,6.59-9.12-3,0-6.9,1.85-8.86,3.15s-7.38,6-7.65,5.83a8.32,8.32,0,0,0,.8.3c.92,4.48,1.86,9,3.93,13.11s5.45,7.71,9.83,9c4.65,1.43,9.67.1,14.29-1.42,9.16-3,17.9-7.55,26.3-12.26a219.44,219.44,0,0,0,29.31-19.46,134.43,134.43,0,0,0,12.72-11.37c4.23-4.34,8.73-9.32,10.68-15.28C241,335.17,241,335.07,241.06,335Z" transform="translate(-37.66 -55.8)" style="fill:#ea635e"/><path d="M204.67,372a151.3,151.3,0,0,0,34.24-30.71" transform="translate(-37.66 -55.8)" style="fill:none;stroke:#c24262;stroke-linecap:round;stroke-linejoin:round;stroke-width:1.6786900000000002px"/><path d="M233.58,347.84a10.38,10.38,0,0,1,4.88-1.22" transform="translate(-37.66 -55.8)" style="fill:none;stroke:#c24262;stroke-linecap:round;stroke-linejoin:round;stroke-width:1.6786900000000002px"/><path d="M146.78,379.53c1.27-8,6.12-16.35,12.69-21.06" transform="translate(-37.66 -55.8)" style="fill:none;stroke:#c24262;stroke-linecap:round;stroke-linejoin:round;stroke-width:1.6786900000000002px"/><path d="M143.83,369.21c3.19-4.92,10-8.35,15.8-10.77" transform="translate(-37.66 -55.8)" style="fill:none;stroke:#c24262;stroke-linecap:round;stroke-linejoin:round;stroke-width:1.6786900000000002px"/></g></g></svg>