<svg id="Layer_1" data-name="Layer 1" xmlns="http://www.w3.org/2000/svg" width="360" height="360" viewBox="0 0 360 360"><title>hand-washing</title><path d="M912,600h18l61.5-50.28A16.21,16.21,0,0,1,1002,546h1.74A16.29,16.29,0,0,1,1014,574.92L942,636H846l-66,42V600l59.4-34.62A53.55,53.55,0,0,1,866.58,558h1.5a54.17,54.17,0,0,1,15.54,2.28l42.6,12.78a13.76,13.76,0,0,1-4,26.94H882" transform="translate(-780 -360)" style="fill:#fbe1ca"/><path d="M942,636H900v66a18,18,0,0,0,36,0V675a15,15,0,0,1,30,0v12a15,15,0,0,0,30,0V590.28Zm0,0" transform="translate(-780 -360)" style="fill:#dc2626"/><path d="M839.4,565.38A53.55,53.55,0,0,1,866.58,558h1.5a54.88,54.88,0,0,1,15.54,2.28l42.6,12.78a13.74,13.74,0,0,1-4,26.94H930l57.54-47.1-.72-.9A36,36,0,0,0,960,540h-.54A36,36,0,0,0,894,526.08,42,42,0,0,0,834,564a20.94,20.94,0,0,0,.3,4.32Zm0,0" transform="translate(-780 -360)" style="fill:#dc2626"/><path d="M858,474a18,18,0,1,1-18-18,18,18,0,0,1,18,18Zm0,0" transform="translate(-780 -360)" style="fill:#db6262"/><path d="M960,426a24,24,0,1,1-24-24,24,24,0,0,1,24,24Zm0,0" transform="translate(-780 -360)" style="fill:#db6262"/><rect x="312" y="48" width="48" height="66" style="fill:#e2e7f6"/><path d="M1092,462h-48a12,12,0,0,0-12,12v18H984V462a42,42,0,0,1,42-42h66Zm0,0" transform="translate(-780 -360)" style="fill:#c8cded"/><rect x="252" y="24" width="24" height="36" style="fill:#e2e7f6"/><rect x="234" width="60" height="24" style="fill:#c8cded"/><path d="M1062,528a12,12,0,1,1-12-12,12,12,0,0,1,12,12Zm0,0" transform="translate(-780 -360)" style="fill:#db6262"/></svg>