<svg id="logo" xmlns="http://www.w3.org/2000/svg" width="35.09mm" height="29.15mm" viewBox="0 0 99.47 82.63"><title>logo</title><path d="M220.16,94.73c-6.24,0-8.79,4.42-5.67,9.82l31,53.63c3.12,5.4,8.22,5.4,11.34,0l31-53.63c3.12-5.4.57-9.82-5.67-9.82Z" transform="translate(-210.66 -92.23)" style="fill:#d62626"/><path d="M220.16,94.73c-6.24,0-8.79,4.42-5.67,9.82l31,53.63c3.12,5.4,8.22,5.4,11.34,0l31-53.63c3.12-5.4.57-9.82-5.67-9.82Z" transform="translate(-210.66 -92.23)" style="fill:none;stroke:#d62626;stroke-linecap:round;stroke-miterlimit:10;stroke-width:5px"/><path d="M241.2,107.37c-6.23,0-8.79,4.42-5.67,9.82l31,53.62c3.12,5.4,8.23,5.4,11.34,0l31-53.62c3.12-5.4.57-9.82-5.66-9.82Z" transform="translate(-210.66 -92.23)" style="fill:#fff"/></svg>