<svg id="Layer_1" data-name="Layer 1" xmlns="http://www.w3.org/2000/svg" width="288" height="366" viewBox="0 0 288 366"><title>medical-mask</title><rect x="12" y="330" width="48" height="36" style="fill:#fbe1ca"/><rect x="228" y="330" width="48" height="36" style="fill:#fbe1ca"/><path d="M1032,447v36a72,72,0,0,1-144,0V447a101.39,101.39,0,0,0,72-29.7v0a101.39,101.39,0,0,0,72,29.7Zm0,0" transform="translate(-816 -357)" style="fill:#fbe1ca"/><path d="M960,555a71.57,71.57,0,0,1-42-13.62V573l42,54,42-54V541.38A71.59,71.59,0,0,1,960,555Zm0,0" transform="translate(-816 -357)" style="fill:#fbe1ca"/><path d="M1032,450.54l-34.26,34.2,8.52,8.52,25.74-25.8Zm0,0" transform="translate(-816 -357)" style="fill:#e75a5a"/><path d="M888,467.46l25.74,25.8,8.52-8.52L888,450.54Zm0,0" transform="translate(-816 -357)" style="fill:#e75a5a"/><path d="M1071.6,589.38,1002,573l-42,54-42-54-69.6,16.38A42,42,0,0,0,816,630.24V687h60v36h168V687h60V630.24a42,42,0,0,0-32.4-40.86Zm0,0" transform="translate(-816 -357)" style="fill:#dc2626"/><path d="M888,483V459h-6a18,18,0,0,0,0,36h7.08A72.06,72.06,0,0,1,888,483Zm0,0" transform="translate(-816 -357)" style="fill:#fbe1ca"/><path d="M960,357a84,84,0,0,0-84,84v19.08a18.07,18.07,0,0,1,6-1.08h6V447a101.39,101.39,0,0,0,72-29.7v0a101.39,101.39,0,0,0,72,29.7v12h6a18.07,18.07,0,0,1,6,1.08V441a84,84,0,0,0-84-84Zm0,0" transform="translate(-816 -357)" style="fill:#9da1bf"/><path d="M1038,459h-6v24a72.06,72.06,0,0,1-1.08,12H1038a18,18,0,0,0,0-36Zm0,0" transform="translate(-816 -357)" style="fill:#fbe1ca"/><rect x="54" y="282" width="12" height="84" style="fill:#e75a5a"/><rect x="222" y="282" width="12" height="84" style="fill:#e75a5a"/><path d="M1008,483H912v53.58a72,72,0,0,0,96,0Zm0,0" transform="translate(-816 -357)" style="fill:#e75a5a"/><path d="M918,573l-12,2.82V657h12Zm0,0" transform="translate(-816 -357)" style="fill:#c8cded"/><path d="M930,669a18,18,0,1,1-18-18,18,18,0,0,1,18,18Zm0,0" transform="translate(-816 -357)" style="fill:#c8cded"/></svg>