<svg id="Layer_1" data-name="Layer 1" xmlns="http://www.w3.org/2000/svg" xmlns:xlink="http://www.w3.org/1999/xlink" width="360.27" height="360" viewBox="0 0 360.27 360"><defs><clipPath id="clip-path" transform="translate(-779.73 -360)"><rect x="779" y="360" width="361" height="360" style="fill:none"/></clipPath></defs><title>notifications</title><g style="clip-path:url(#clip-path)"><path d="M1140,540A180,180,0,1,1,960,360a180,180,0,0,1,180,180Zm0,0" transform="translate(-779.73 -360)" style="fill:#fff"/><path d="M890.46,530.46A29,29,0,0,1,882,510a28.92,28.92,0,0,0-2.46-11.52A72,72,0,0,1,793,473.16,179.51,179.51,0,0,0,820.74,654h11.4a120.37,120.37,0,0,0,85.14-35.28,43.43,43.43,0,0,0,0-61.44Zm0,0" transform="translate(-779.73 -360)" style="fill:#eaaa75"/><path d="M936,492l-19.74-27.66a72,72,0,1,0-19.2,24Zm0,0" transform="translate(-779.73 -360)" style="fill:#dc2626"/></g><path d="M826.26,433.74l27.48-27.48a14.49,14.49,0,0,1,20.52,0l3.48,3.48a14.49,14.49,0,0,1,0,20.52l-27.48,27.48a14.49,14.49,0,0,1-20.52,0l-3.48-3.48a14.49,14.49,0,0,1,0-20.52Zm0,0" transform="translate(-779.73 -360)" style="fill:#e2e7f6"/><path d="M829.74,457.74l-3.48-3.48a14.49,14.49,0,0,1-2.1-2.7l-12.36,12,8.4,8.52,12.54-12.3a13.35,13.35,0,0,1-3-2Zm0,0" transform="translate(-779.73 -360)" style="fill:#e75a5a"/><path d="M835.38,424.62,820.2,409.74l-8.4,8.52,15.12,14.82Zm0,0" transform="translate(-779.73 -360)" style="fill:#e75a5a"/><path d="M853.38,406.62,838.2,391.74l-8.4,8.52,15.12,14.82Zm0,0" transform="translate(-779.73 -360)" style="fill:#e75a5a"/><path d="M874.26,406.26l3.48,3.48a13.33,13.33,0,0,1,2.22,3l12.3-12.54-8.52-8.4-12,12.36a15,15,0,0,1,2.52,2.1Zm0,0" transform="translate(-779.73 -360)" style="fill:#e75a5a"/><path d="M877.38,430.62l-8.46,8.46,14.82,15.12,8.52-8.4Zm0,0" transform="translate(-779.73 -360)" style="fill:#e75a5a"/><path d="M850.92,457.08l14.82,15.12,8.52-8.4-14.88-15.18Zm0,0" transform="translate(-779.73 -360)" style="fill:#e75a5a"/><rect x="66.27" y="12" width="12" height="12" style="fill:#e75a5a"/><rect x="60.27" y="114" width="12" height="12" style="fill:#e75a5a"/><rect x="114.27" y="66" width="12" height="12" style="fill:#e75a5a"/><rect x="18.27" y="66" width="12" height="12" style="fill:#e75a5a"/><path d="M1139.52,552.6,1133,552a41,41,0,0,0-29,12,41,41,0,0,1-29,12h-14a41,41,0,0,0-29,12l-6,6a41,41,0,0,0-12,29v2a41,41,0,0,1-12,29,41,41,0,0,0-12,29v34.5A180,180,0,0,0,1139.52,552.6Zm0,0" transform="translate(-779.73 -360)" style="fill:#72cc9f"/><path d="M1107.36,479.4l12.9-21.3A180,180,0,0,0,960.54,360L960,373.26a34.24,34.24,0,0,0,13,26.82,44.77,44.77,0,0,1,17,35,44.31,44.31,0,0,1-2.88,15.78l-2.16,6a52.38,52.38,0,0,0,14.76,58.2,53.31,53.31,0,0,0,46.56,12,108,108,0,0,0,61.08-47.7Zm0,0" transform="translate(-779.73 -360)" style="fill:#bdf4e9"/></svg>