<svg id="Layer_1" data-name="Layer 1" xmlns="http://www.w3.org/2000/svg" xmlns:xlink="http://www.w3.org/1999/xlink" width="360" height="360" viewBox="0 0 360 360"><defs><clipPath id="clip-path" transform="translate(-780 -360)"><rect x="780" y="360" width="360" height="360" style="fill:none"/></clipPath></defs><title>social-distancing</title><g style="clip-path:url(#clip-path)"><path d="M1032,432a72,72,0,1,0-86,70.62L960,540l14-37.38A72,72,0,0,0,1032,432Zm0,0" transform="translate(-780 -360)" style="fill:#dc2626"/></g><path d="M1140,720V708a60,60,0,0,0-60-60h-60a60,60,0,0,0-60,60v12Zm0,0" transform="translate(-780 -360)" style="fill:#dc2626"/><path d="M1026,648a24,24,0,0,0,48,0Zm0,0" transform="translate(-780 -360)" style="fill:#fbe1ca"/><path d="M1098,576v24a48,48,0,0,1-96,0V576a60,60,0,0,0,48-24,60,60,0,0,0,48,24Zm0,0" transform="translate(-780 -360)" style="fill:#fbe1ca"/><path d="M1002,600V576h-6a18,18,0,0,0,0,36h7.56a49.56,49.56,0,0,1-1.56-12Zm0,0" transform="translate(-780 -360)" style="fill:#fbe1ca"/><path d="M1050,504a60,60,0,0,0-60,60v13.08a18.07,18.07,0,0,1,6-1.08h6a60,60,0,0,0,48-24,60,60,0,0,0,48,24h6a18.07,18.07,0,0,1,6,1.08V564a60,60,0,0,0-60-60Zm0,0" transform="translate(-780 -360)" style="fill:#9da1bf"/><path d="M1104,576h-6v24a49.56,49.56,0,0,1-1.56,12H1104a18,18,0,0,0,0-36Zm0,0" transform="translate(-780 -360)" style="fill:#fbe1ca"/><path d="M918,576v24a48,48,0,0,1-96,0V576a60,60,0,0,0,48-24,60,60,0,0,0,48,24Zm0,0" transform="translate(-780 -360)" style="fill:#fbe1ca"/><path d="M822,600V576h-6a18,18,0,0,0,0,36h7.56A49.56,49.56,0,0,1,822,600Zm0,0" transform="translate(-780 -360)" style="fill:#fbe1ca"/><path d="M870,504a60,60,0,0,0-60,60v13.08a18.07,18.07,0,0,1,6-1.08h6a60,60,0,0,0,48-24,60,60,0,0,0,48,24h6a18.07,18.07,0,0,1,6,1.08V564a60,60,0,0,0-60-60Zm0,0" transform="translate(-780 -360)" style="fill:#9da1bf"/><path d="M924,576h-6v24a49.56,49.56,0,0,1-1.56,12H924a18,18,0,0,0,0-36Zm0,0" transform="translate(-780 -360)" style="fill:#fbe1ca"/><path d="M960,720V708a60,60,0,0,0-60-60H840a60,60,0,0,0-60,60v12Zm0,0" transform="translate(-780 -360)" style="fill:#dc2626"/><rect x="30" y="330" width="12" height="30" style="fill:#b31b1b"/><rect x="138" y="330" width="12" height="30" style="fill:#b31b1b"/><path d="M846,648a24,24,0,0,0,48,0Zm0,0" transform="translate(-780 -360)" style="fill:#fbe1ca"/><path d="M933.9,433.74l27.54-27.48a14.41,14.41,0,0,1,20.46,0l3.54,3.48a14.63,14.63,0,0,1,0,20.52L957.9,457.74a14.41,14.41,0,0,1-20.46,0l-3.54-3.48a14.49,14.49,0,0,1,0-20.52Zm0,0" transform="translate(-780 -360)" style="fill:#e2e7f6"/><path d="M937.44,457.74l-3.54-3.48a17.88,17.88,0,0,1-2-2.7l-12.42,12,8.4,8.52,12.54-12.3a14.57,14.57,0,0,1-2.94-2Zm0,0" transform="translate(-780 -360)" style="fill:#b31b1b"/><path d="M943,424.62l-15.18-14.88-8.4,8.52,15.12,14.82Zm0,0" transform="translate(-780 -360)" style="fill:#b31b1b"/><path d="M961,406.62l-15.18-14.88-8.4,8.52,15.12,14.82Zm0,0" transform="translate(-780 -360)" style="fill:#b31b1b"/><path d="M981.9,406.26l3.54,3.48a15.84,15.84,0,0,1,2.22,3l12-12.54-8.28-8.4-12,12.36a13.33,13.33,0,0,1,2.52,2.1Zm0,0" transform="translate(-780 -360)" style="fill:#b31b1b"/><path d="M985,430.62l-8.46,8.46,14.82,15.12,8.58-8.4Zm0,0" transform="translate(-780 -360)" style="fill:#b31b1b"/><path d="M958.56,457.08l14.82,15.12,8.58-8.4L967,448.62Zm0,0" transform="translate(-780 -360)" style="fill:#b31b1b"/><rect x="173.64" y="12" width="12" height="12" style="fill:#b31b1b"/><rect x="167.64" y="114" width="12" height="12" style="fill:#b31b1b"/><rect x="221.64" y="66" width="12" height="12" style="fill:#b31b1b"/><rect x="125.64" y="66" width="12" height="12" style="fill:#b31b1b"/><rect x="210" y="330" width="12" height="30" style="fill:#b31b1b"/><rect x="318" y="330" width="12" height="30" style="fill:#b31b1b"/></svg>