<svg id="Layer_1" data-name="Layer 1" xmlns="http://www.w3.org/2000/svg" width="360" height="360" viewBox="0 0 360 360"><title>stay-home</title><path d="M816,540V696h288V540L960,396Zm0,0" transform="translate(-780 -360)" style="fill:#fff"/><path d="M1140,540h-36L960,396,816,540H780L960,360Zm0,0" transform="translate(-780 -360)" style="fill:#9da1bf"/><path d="M1134,450a60,60,0,1,1-60-60,60,60,0,0,1,60,60Zm0,0" transform="translate(-780 -360)" style="fill:#dc2626"/><rect x="24" y="336" width="312" height="24" style="fill:#9da1bf"/><path d="M1008,540v24a48,48,0,0,1-96,0V540a60,60,0,0,0,48-24,60,60,0,0,0,48,24Zm0,0" transform="translate(-780 -360)" style="fill:#fbe1ca"/><path d="M912,564V540h-6a18,18,0,0,0,0,36h7.56A49.56,49.56,0,0,1,912,564Zm0,0" transform="translate(-780 -360)" style="fill:#fbe1ca"/><path d="M960,468a60,60,0,0,0-60,60v13.08a18.07,18.07,0,0,1,6-1.08h6a60,60,0,0,0,48-24,60,60,0,0,0,48,24h6a18.07,18.07,0,0,1,6,1.08V528a60,60,0,0,0-60-60Zm0,0" transform="translate(-780 -360)" style="fill:#9da1bf"/><path d="M1014,540h-6v24a49.56,49.56,0,0,1-1.56,12H1014a18,18,0,0,0,0-36Zm0,0" transform="translate(-780 -360)" style="fill:#fbe1ca"/><path d="M1050,696V672a60,60,0,0,0-60-60H930a60,60,0,0,0-60,60v24Zm0,0" transform="translate(-780 -360)" style="fill:#dc2626"/><rect x="120" y="294" width="12" height="42" style="fill:#e57777"/><rect x="228" y="294" width="12" height="42" style="fill:#e57777"/><path d="M936,612a24,24,0,0,0,48,0Zm0,0" transform="translate(-780 -360)" style="fill:#fbe1ca"/><path d="M1068,480a6,6,0,0,1-4.26-1.74l-18-18,8.52-8.52,12.36,12.42,26.16-47.1,10.44,6-30,54a6,6,0,0,1-4.38,3Zm0,0" transform="translate(-780 -360)" style="fill:#e57777"/></svg>